%TF.GenerationSoftware,KiCad,Pcbnew,7.0.5*%
%TF.CreationDate,2024-01-22T16:17:07+01:00*%
%TF.ProjectId,Panel_Luminoso_V2,50616e65-6c5f-44c7-956d-696e6f736f5f,rev?*%
%TF.SameCoordinates,Original*%
%TF.FileFunction,Drillmap*%
%TF.FilePolarity,Positive*%
%FSLAX45Y45*%
G04 Gerber Fmt 4.5, Leading zero omitted, Abs format (unit mm)*
G04 Created by KiCad (PCBNEW 7.0.5) date 2024-01-22 16:17:07*
%MOMM*%
%LPD*%
G01*
G04 APERTURE LIST*
%ADD10C,0.100000*%
%ADD11C,0.200000*%
%ADD12C,0.120000*%
%ADD13C,0.320000*%
G04 APERTURE END LIST*
D10*
X8401400Y-6740000D02*
X21899400Y-6740000D01*
X21899400Y-13090000D01*
X8401400Y-13090000D01*
X8401400Y-6740000D01*
D11*
D12*
X21240000Y-8690000D02*
X21360000Y-8810000D01*
X21360000Y-8690000D02*
X21240000Y-8810000D01*
D13*
X8940000Y-12610000D02*
G75*
G03*
X8940000Y-12610000I-160000J0D01*
G01*
X8960000Y-7180000D02*
G75*
G03*
X8960000Y-7180000I-160000J0D01*
G01*
X21630000Y-7200000D02*
G75*
G03*
X21630000Y-7200000I-160000J0D01*
G01*
X21690000Y-12610000D02*
G75*
G03*
X21690000Y-12610000I-160000J0D01*
G01*
D11*
X8657177Y-13406484D02*
X8657177Y-13206484D01*
X8657177Y-13206484D02*
X8704796Y-13206484D01*
X8704796Y-13206484D02*
X8733367Y-13216008D01*
X8733367Y-13216008D02*
X8752415Y-13235055D01*
X8752415Y-13235055D02*
X8761939Y-13254103D01*
X8761939Y-13254103D02*
X8771463Y-13292198D01*
X8771463Y-13292198D02*
X8771463Y-13320769D01*
X8771463Y-13320769D02*
X8761939Y-13358865D01*
X8761939Y-13358865D02*
X8752415Y-13377912D01*
X8752415Y-13377912D02*
X8733367Y-13396960D01*
X8733367Y-13396960D02*
X8704796Y-13406484D01*
X8704796Y-13406484D02*
X8657177Y-13406484D01*
X8857177Y-13406484D02*
X8857177Y-13273150D01*
X8857177Y-13311246D02*
X8866701Y-13292198D01*
X8866701Y-13292198D02*
X8876224Y-13282674D01*
X8876224Y-13282674D02*
X8895272Y-13273150D01*
X8895272Y-13273150D02*
X8914320Y-13273150D01*
X8980986Y-13406484D02*
X8980986Y-13273150D01*
X8980986Y-13206484D02*
X8971463Y-13216008D01*
X8971463Y-13216008D02*
X8980986Y-13225531D01*
X8980986Y-13225531D02*
X8990510Y-13216008D01*
X8990510Y-13216008D02*
X8980986Y-13206484D01*
X8980986Y-13206484D02*
X8980986Y-13225531D01*
X9104796Y-13406484D02*
X9085748Y-13396960D01*
X9085748Y-13396960D02*
X9076224Y-13377912D01*
X9076224Y-13377912D02*
X9076224Y-13206484D01*
X9209558Y-13406484D02*
X9190510Y-13396960D01*
X9190510Y-13396960D02*
X9180986Y-13377912D01*
X9180986Y-13377912D02*
X9180986Y-13206484D01*
X9438129Y-13406484D02*
X9438129Y-13206484D01*
X9438129Y-13206484D02*
X9504796Y-13349341D01*
X9504796Y-13349341D02*
X9571463Y-13206484D01*
X9571463Y-13206484D02*
X9571463Y-13406484D01*
X9752415Y-13406484D02*
X9752415Y-13301722D01*
X9752415Y-13301722D02*
X9742891Y-13282674D01*
X9742891Y-13282674D02*
X9723844Y-13273150D01*
X9723844Y-13273150D02*
X9685748Y-13273150D01*
X9685748Y-13273150D02*
X9666701Y-13282674D01*
X9752415Y-13396960D02*
X9733367Y-13406484D01*
X9733367Y-13406484D02*
X9685748Y-13406484D01*
X9685748Y-13406484D02*
X9666701Y-13396960D01*
X9666701Y-13396960D02*
X9657177Y-13377912D01*
X9657177Y-13377912D02*
X9657177Y-13358865D01*
X9657177Y-13358865D02*
X9666701Y-13339817D01*
X9666701Y-13339817D02*
X9685748Y-13330293D01*
X9685748Y-13330293D02*
X9733367Y-13330293D01*
X9733367Y-13330293D02*
X9752415Y-13320769D01*
X9847653Y-13273150D02*
X9847653Y-13473150D01*
X9847653Y-13282674D02*
X9866701Y-13273150D01*
X9866701Y-13273150D02*
X9904796Y-13273150D01*
X9904796Y-13273150D02*
X9923844Y-13282674D01*
X9923844Y-13282674D02*
X9933367Y-13292198D01*
X9933367Y-13292198D02*
X9942891Y-13311246D01*
X9942891Y-13311246D02*
X9942891Y-13368388D01*
X9942891Y-13368388D02*
X9933367Y-13387436D01*
X9933367Y-13387436D02*
X9923844Y-13396960D01*
X9923844Y-13396960D02*
X9904796Y-13406484D01*
X9904796Y-13406484D02*
X9866701Y-13406484D01*
X9866701Y-13406484D02*
X9847653Y-13396960D01*
X10028605Y-13387436D02*
X10038129Y-13396960D01*
X10038129Y-13396960D02*
X10028605Y-13406484D01*
X10028605Y-13406484D02*
X10019082Y-13396960D01*
X10019082Y-13396960D02*
X10028605Y-13387436D01*
X10028605Y-13387436D02*
X10028605Y-13406484D01*
X10028605Y-13282674D02*
X10038129Y-13292198D01*
X10038129Y-13292198D02*
X10028605Y-13301722D01*
X10028605Y-13301722D02*
X10019082Y-13292198D01*
X10019082Y-13292198D02*
X10028605Y-13282674D01*
X10028605Y-13282674D02*
X10028605Y-13301722D01*
D12*
X8276400Y-13675000D02*
X8396400Y-13795000D01*
X8396400Y-13675000D02*
X8276400Y-13795000D01*
D11*
X8761939Y-13826484D02*
X8647653Y-13826484D01*
X8704796Y-13826484D02*
X8704796Y-13626484D01*
X8704796Y-13626484D02*
X8685748Y-13655055D01*
X8685748Y-13655055D02*
X8666701Y-13674103D01*
X8666701Y-13674103D02*
X8647653Y-13683627D01*
X8847653Y-13807436D02*
X8857177Y-13816960D01*
X8857177Y-13816960D02*
X8847653Y-13826484D01*
X8847653Y-13826484D02*
X8838129Y-13816960D01*
X8838129Y-13816960D02*
X8847653Y-13807436D01*
X8847653Y-13807436D02*
X8847653Y-13826484D01*
X8933367Y-13645531D02*
X8942891Y-13636008D01*
X8942891Y-13636008D02*
X8961939Y-13626484D01*
X8961939Y-13626484D02*
X9009558Y-13626484D01*
X9009558Y-13626484D02*
X9028605Y-13636008D01*
X9028605Y-13636008D02*
X9038129Y-13645531D01*
X9038129Y-13645531D02*
X9047653Y-13664579D01*
X9047653Y-13664579D02*
X9047653Y-13683627D01*
X9047653Y-13683627D02*
X9038129Y-13712198D01*
X9038129Y-13712198D02*
X8923844Y-13826484D01*
X8923844Y-13826484D02*
X9047653Y-13826484D01*
X9171463Y-13626484D02*
X9190510Y-13626484D01*
X9190510Y-13626484D02*
X9209558Y-13636008D01*
X9209558Y-13636008D02*
X9219082Y-13645531D01*
X9219082Y-13645531D02*
X9228605Y-13664579D01*
X9228605Y-13664579D02*
X9238129Y-13702674D01*
X9238129Y-13702674D02*
X9238129Y-13750293D01*
X9238129Y-13750293D02*
X9228605Y-13788388D01*
X9228605Y-13788388D02*
X9219082Y-13807436D01*
X9219082Y-13807436D02*
X9209558Y-13816960D01*
X9209558Y-13816960D02*
X9190510Y-13826484D01*
X9190510Y-13826484D02*
X9171463Y-13826484D01*
X9171463Y-13826484D02*
X9152415Y-13816960D01*
X9152415Y-13816960D02*
X9142891Y-13807436D01*
X9142891Y-13807436D02*
X9133367Y-13788388D01*
X9133367Y-13788388D02*
X9123844Y-13750293D01*
X9123844Y-13750293D02*
X9123844Y-13702674D01*
X9123844Y-13702674D02*
X9133367Y-13664579D01*
X9133367Y-13664579D02*
X9142891Y-13645531D01*
X9142891Y-13645531D02*
X9152415Y-13636008D01*
X9152415Y-13636008D02*
X9171463Y-13626484D01*
X9361939Y-13626484D02*
X9380986Y-13626484D01*
X9380986Y-13626484D02*
X9400034Y-13636008D01*
X9400034Y-13636008D02*
X9409558Y-13645531D01*
X9409558Y-13645531D02*
X9419082Y-13664579D01*
X9419082Y-13664579D02*
X9428605Y-13702674D01*
X9428605Y-13702674D02*
X9428605Y-13750293D01*
X9428605Y-13750293D02*
X9419082Y-13788388D01*
X9419082Y-13788388D02*
X9409558Y-13807436D01*
X9409558Y-13807436D02*
X9400034Y-13816960D01*
X9400034Y-13816960D02*
X9380986Y-13826484D01*
X9380986Y-13826484D02*
X9361939Y-13826484D01*
X9361939Y-13826484D02*
X9342891Y-13816960D01*
X9342891Y-13816960D02*
X9333367Y-13807436D01*
X9333367Y-13807436D02*
X9323844Y-13788388D01*
X9323844Y-13788388D02*
X9314320Y-13750293D01*
X9314320Y-13750293D02*
X9314320Y-13702674D01*
X9314320Y-13702674D02*
X9323844Y-13664579D01*
X9323844Y-13664579D02*
X9333367Y-13645531D01*
X9333367Y-13645531D02*
X9342891Y-13636008D01*
X9342891Y-13636008D02*
X9361939Y-13626484D01*
X9514320Y-13826484D02*
X9514320Y-13693150D01*
X9514320Y-13712198D02*
X9523844Y-13702674D01*
X9523844Y-13702674D02*
X9542891Y-13693150D01*
X9542891Y-13693150D02*
X9571463Y-13693150D01*
X9571463Y-13693150D02*
X9590510Y-13702674D01*
X9590510Y-13702674D02*
X9600034Y-13721722D01*
X9600034Y-13721722D02*
X9600034Y-13826484D01*
X9600034Y-13721722D02*
X9609558Y-13702674D01*
X9609558Y-13702674D02*
X9628605Y-13693150D01*
X9628605Y-13693150D02*
X9657177Y-13693150D01*
X9657177Y-13693150D02*
X9676225Y-13702674D01*
X9676225Y-13702674D02*
X9685748Y-13721722D01*
X9685748Y-13721722D02*
X9685748Y-13826484D01*
X9780986Y-13826484D02*
X9780986Y-13693150D01*
X9780986Y-13712198D02*
X9790510Y-13702674D01*
X9790510Y-13702674D02*
X9809558Y-13693150D01*
X9809558Y-13693150D02*
X9838129Y-13693150D01*
X9838129Y-13693150D02*
X9857177Y-13702674D01*
X9857177Y-13702674D02*
X9866701Y-13721722D01*
X9866701Y-13721722D02*
X9866701Y-13826484D01*
X9866701Y-13721722D02*
X9876225Y-13702674D01*
X9876225Y-13702674D02*
X9895272Y-13693150D01*
X9895272Y-13693150D02*
X9923844Y-13693150D01*
X9923844Y-13693150D02*
X9942891Y-13702674D01*
X9942891Y-13702674D02*
X9952415Y-13721722D01*
X9952415Y-13721722D02*
X9952415Y-13826484D01*
X10342891Y-13616960D02*
X10171463Y-13874103D01*
X10600034Y-13626484D02*
X10619082Y-13626484D01*
X10619082Y-13626484D02*
X10638129Y-13636008D01*
X10638129Y-13636008D02*
X10647653Y-13645531D01*
X10647653Y-13645531D02*
X10657177Y-13664579D01*
X10657177Y-13664579D02*
X10666701Y-13702674D01*
X10666701Y-13702674D02*
X10666701Y-13750293D01*
X10666701Y-13750293D02*
X10657177Y-13788388D01*
X10657177Y-13788388D02*
X10647653Y-13807436D01*
X10647653Y-13807436D02*
X10638129Y-13816960D01*
X10638129Y-13816960D02*
X10619082Y-13826484D01*
X10619082Y-13826484D02*
X10600034Y-13826484D01*
X10600034Y-13826484D02*
X10580987Y-13816960D01*
X10580987Y-13816960D02*
X10571463Y-13807436D01*
X10571463Y-13807436D02*
X10561939Y-13788388D01*
X10561939Y-13788388D02*
X10552415Y-13750293D01*
X10552415Y-13750293D02*
X10552415Y-13702674D01*
X10552415Y-13702674D02*
X10561939Y-13664579D01*
X10561939Y-13664579D02*
X10571463Y-13645531D01*
X10571463Y-13645531D02*
X10580987Y-13636008D01*
X10580987Y-13636008D02*
X10600034Y-13626484D01*
X10752415Y-13807436D02*
X10761939Y-13816960D01*
X10761939Y-13816960D02*
X10752415Y-13826484D01*
X10752415Y-13826484D02*
X10742891Y-13816960D01*
X10742891Y-13816960D02*
X10752415Y-13807436D01*
X10752415Y-13807436D02*
X10752415Y-13826484D01*
X10885748Y-13626484D02*
X10904796Y-13626484D01*
X10904796Y-13626484D02*
X10923844Y-13636008D01*
X10923844Y-13636008D02*
X10933368Y-13645531D01*
X10933368Y-13645531D02*
X10942891Y-13664579D01*
X10942891Y-13664579D02*
X10952415Y-13702674D01*
X10952415Y-13702674D02*
X10952415Y-13750293D01*
X10952415Y-13750293D02*
X10942891Y-13788388D01*
X10942891Y-13788388D02*
X10933368Y-13807436D01*
X10933368Y-13807436D02*
X10923844Y-13816960D01*
X10923844Y-13816960D02*
X10904796Y-13826484D01*
X10904796Y-13826484D02*
X10885748Y-13826484D01*
X10885748Y-13826484D02*
X10866701Y-13816960D01*
X10866701Y-13816960D02*
X10857177Y-13807436D01*
X10857177Y-13807436D02*
X10847653Y-13788388D01*
X10847653Y-13788388D02*
X10838129Y-13750293D01*
X10838129Y-13750293D02*
X10838129Y-13702674D01*
X10838129Y-13702674D02*
X10847653Y-13664579D01*
X10847653Y-13664579D02*
X10857177Y-13645531D01*
X10857177Y-13645531D02*
X10866701Y-13636008D01*
X10866701Y-13636008D02*
X10885748Y-13626484D01*
X11123844Y-13693150D02*
X11123844Y-13826484D01*
X11076225Y-13616960D02*
X11028606Y-13759817D01*
X11028606Y-13759817D02*
X11152415Y-13759817D01*
X11209558Y-13626484D02*
X11342891Y-13626484D01*
X11342891Y-13626484D02*
X11257177Y-13826484D01*
X11409558Y-13645531D02*
X11419082Y-13636008D01*
X11419082Y-13636008D02*
X11438129Y-13626484D01*
X11438129Y-13626484D02*
X11485748Y-13626484D01*
X11485748Y-13626484D02*
X11504796Y-13636008D01*
X11504796Y-13636008D02*
X11514320Y-13645531D01*
X11514320Y-13645531D02*
X11523844Y-13664579D01*
X11523844Y-13664579D02*
X11523844Y-13683627D01*
X11523844Y-13683627D02*
X11514320Y-13712198D01*
X11514320Y-13712198D02*
X11400034Y-13826484D01*
X11400034Y-13826484D02*
X11523844Y-13826484D01*
X11600034Y-13626484D02*
X11600034Y-13664579D01*
X11676225Y-13626484D02*
X11676225Y-13664579D01*
X11971463Y-13902674D02*
X11961939Y-13893150D01*
X11961939Y-13893150D02*
X11942891Y-13864579D01*
X11942891Y-13864579D02*
X11933368Y-13845531D01*
X11933368Y-13845531D02*
X11923844Y-13816960D01*
X11923844Y-13816960D02*
X11914320Y-13769341D01*
X11914320Y-13769341D02*
X11914320Y-13731246D01*
X11914320Y-13731246D02*
X11923844Y-13683627D01*
X11923844Y-13683627D02*
X11933368Y-13655055D01*
X11933368Y-13655055D02*
X11942891Y-13636008D01*
X11942891Y-13636008D02*
X11961939Y-13607436D01*
X11961939Y-13607436D02*
X11971463Y-13597912D01*
X12152415Y-13826484D02*
X12038129Y-13826484D01*
X12095272Y-13826484D02*
X12095272Y-13626484D01*
X12095272Y-13626484D02*
X12076225Y-13655055D01*
X12076225Y-13655055D02*
X12057177Y-13674103D01*
X12057177Y-13674103D02*
X12038129Y-13683627D01*
X12390510Y-13826484D02*
X12390510Y-13626484D01*
X12476225Y-13826484D02*
X12476225Y-13721722D01*
X12476225Y-13721722D02*
X12466701Y-13702674D01*
X12466701Y-13702674D02*
X12447653Y-13693150D01*
X12447653Y-13693150D02*
X12419082Y-13693150D01*
X12419082Y-13693150D02*
X12400034Y-13702674D01*
X12400034Y-13702674D02*
X12390510Y-13712198D01*
X12600034Y-13826484D02*
X12580987Y-13816960D01*
X12580987Y-13816960D02*
X12571463Y-13807436D01*
X12571463Y-13807436D02*
X12561939Y-13788388D01*
X12561939Y-13788388D02*
X12561939Y-13731246D01*
X12561939Y-13731246D02*
X12571463Y-13712198D01*
X12571463Y-13712198D02*
X12580987Y-13702674D01*
X12580987Y-13702674D02*
X12600034Y-13693150D01*
X12600034Y-13693150D02*
X12628606Y-13693150D01*
X12628606Y-13693150D02*
X12647653Y-13702674D01*
X12647653Y-13702674D02*
X12657177Y-13712198D01*
X12657177Y-13712198D02*
X12666701Y-13731246D01*
X12666701Y-13731246D02*
X12666701Y-13788388D01*
X12666701Y-13788388D02*
X12657177Y-13807436D01*
X12657177Y-13807436D02*
X12647653Y-13816960D01*
X12647653Y-13816960D02*
X12628606Y-13826484D01*
X12628606Y-13826484D02*
X12600034Y-13826484D01*
X12780987Y-13826484D02*
X12761939Y-13816960D01*
X12761939Y-13816960D02*
X12752415Y-13797912D01*
X12752415Y-13797912D02*
X12752415Y-13626484D01*
X12933368Y-13816960D02*
X12914320Y-13826484D01*
X12914320Y-13826484D02*
X12876225Y-13826484D01*
X12876225Y-13826484D02*
X12857177Y-13816960D01*
X12857177Y-13816960D02*
X12847653Y-13797912D01*
X12847653Y-13797912D02*
X12847653Y-13721722D01*
X12847653Y-13721722D02*
X12857177Y-13702674D01*
X12857177Y-13702674D02*
X12876225Y-13693150D01*
X12876225Y-13693150D02*
X12914320Y-13693150D01*
X12914320Y-13693150D02*
X12933368Y-13702674D01*
X12933368Y-13702674D02*
X12942891Y-13721722D01*
X12942891Y-13721722D02*
X12942891Y-13740769D01*
X12942891Y-13740769D02*
X12847653Y-13759817D01*
X13009558Y-13902674D02*
X13019082Y-13893150D01*
X13019082Y-13893150D02*
X13038130Y-13864579D01*
X13038130Y-13864579D02*
X13047653Y-13845531D01*
X13047653Y-13845531D02*
X13057177Y-13816960D01*
X13057177Y-13816960D02*
X13066701Y-13769341D01*
X13066701Y-13769341D02*
X13066701Y-13731246D01*
X13066701Y-13731246D02*
X13057177Y-13683627D01*
X13057177Y-13683627D02*
X13047653Y-13655055D01*
X13047653Y-13655055D02*
X13038130Y-13636008D01*
X13038130Y-13636008D02*
X13019082Y-13607436D01*
X13019082Y-13607436D02*
X13009558Y-13597912D01*
X13371463Y-13902674D02*
X13361939Y-13893150D01*
X13361939Y-13893150D02*
X13342891Y-13864579D01*
X13342891Y-13864579D02*
X13333368Y-13845531D01*
X13333368Y-13845531D02*
X13323844Y-13816960D01*
X13323844Y-13816960D02*
X13314320Y-13769341D01*
X13314320Y-13769341D02*
X13314320Y-13731246D01*
X13314320Y-13731246D02*
X13323844Y-13683627D01*
X13323844Y-13683627D02*
X13333368Y-13655055D01*
X13333368Y-13655055D02*
X13342891Y-13636008D01*
X13342891Y-13636008D02*
X13361939Y-13607436D01*
X13361939Y-13607436D02*
X13371463Y-13597912D01*
X13447653Y-13693150D02*
X13447653Y-13826484D01*
X13447653Y-13712198D02*
X13457177Y-13702674D01*
X13457177Y-13702674D02*
X13476225Y-13693150D01*
X13476225Y-13693150D02*
X13504796Y-13693150D01*
X13504796Y-13693150D02*
X13523844Y-13702674D01*
X13523844Y-13702674D02*
X13533368Y-13721722D01*
X13533368Y-13721722D02*
X13533368Y-13826484D01*
X13657177Y-13826484D02*
X13638130Y-13816960D01*
X13638130Y-13816960D02*
X13628606Y-13807436D01*
X13628606Y-13807436D02*
X13619082Y-13788388D01*
X13619082Y-13788388D02*
X13619082Y-13731246D01*
X13619082Y-13731246D02*
X13628606Y-13712198D01*
X13628606Y-13712198D02*
X13638130Y-13702674D01*
X13638130Y-13702674D02*
X13657177Y-13693150D01*
X13657177Y-13693150D02*
X13685749Y-13693150D01*
X13685749Y-13693150D02*
X13704796Y-13702674D01*
X13704796Y-13702674D02*
X13714320Y-13712198D01*
X13714320Y-13712198D02*
X13723844Y-13731246D01*
X13723844Y-13731246D02*
X13723844Y-13788388D01*
X13723844Y-13788388D02*
X13714320Y-13807436D01*
X13714320Y-13807436D02*
X13704796Y-13816960D01*
X13704796Y-13816960D02*
X13685749Y-13826484D01*
X13685749Y-13826484D02*
X13657177Y-13826484D01*
X13780987Y-13693150D02*
X13857177Y-13693150D01*
X13809558Y-13626484D02*
X13809558Y-13797912D01*
X13809558Y-13797912D02*
X13819082Y-13816960D01*
X13819082Y-13816960D02*
X13838130Y-13826484D01*
X13838130Y-13826484D02*
X13857177Y-13826484D01*
X14076225Y-13693150D02*
X14076225Y-13893150D01*
X14076225Y-13702674D02*
X14095272Y-13693150D01*
X14095272Y-13693150D02*
X14133368Y-13693150D01*
X14133368Y-13693150D02*
X14152415Y-13702674D01*
X14152415Y-13702674D02*
X14161939Y-13712198D01*
X14161939Y-13712198D02*
X14171463Y-13731246D01*
X14171463Y-13731246D02*
X14171463Y-13788388D01*
X14171463Y-13788388D02*
X14161939Y-13807436D01*
X14161939Y-13807436D02*
X14152415Y-13816960D01*
X14152415Y-13816960D02*
X14133368Y-13826484D01*
X14133368Y-13826484D02*
X14095272Y-13826484D01*
X14095272Y-13826484D02*
X14076225Y-13816960D01*
X14285749Y-13826484D02*
X14266701Y-13816960D01*
X14266701Y-13816960D02*
X14257177Y-13797912D01*
X14257177Y-13797912D02*
X14257177Y-13626484D01*
X14447653Y-13826484D02*
X14447653Y-13721722D01*
X14447653Y-13721722D02*
X14438130Y-13702674D01*
X14438130Y-13702674D02*
X14419082Y-13693150D01*
X14419082Y-13693150D02*
X14380987Y-13693150D01*
X14380987Y-13693150D02*
X14361939Y-13702674D01*
X14447653Y-13816960D02*
X14428606Y-13826484D01*
X14428606Y-13826484D02*
X14380987Y-13826484D01*
X14380987Y-13826484D02*
X14361939Y-13816960D01*
X14361939Y-13816960D02*
X14352415Y-13797912D01*
X14352415Y-13797912D02*
X14352415Y-13778865D01*
X14352415Y-13778865D02*
X14361939Y-13759817D01*
X14361939Y-13759817D02*
X14380987Y-13750293D01*
X14380987Y-13750293D02*
X14428606Y-13750293D01*
X14428606Y-13750293D02*
X14447653Y-13740769D01*
X14514320Y-13693150D02*
X14590511Y-13693150D01*
X14542892Y-13626484D02*
X14542892Y-13797912D01*
X14542892Y-13797912D02*
X14552415Y-13816960D01*
X14552415Y-13816960D02*
X14571463Y-13826484D01*
X14571463Y-13826484D02*
X14590511Y-13826484D01*
X14733368Y-13816960D02*
X14714320Y-13826484D01*
X14714320Y-13826484D02*
X14676225Y-13826484D01*
X14676225Y-13826484D02*
X14657177Y-13816960D01*
X14657177Y-13816960D02*
X14647653Y-13797912D01*
X14647653Y-13797912D02*
X14647653Y-13721722D01*
X14647653Y-13721722D02*
X14657177Y-13702674D01*
X14657177Y-13702674D02*
X14676225Y-13693150D01*
X14676225Y-13693150D02*
X14714320Y-13693150D01*
X14714320Y-13693150D02*
X14733368Y-13702674D01*
X14733368Y-13702674D02*
X14742892Y-13721722D01*
X14742892Y-13721722D02*
X14742892Y-13740769D01*
X14742892Y-13740769D02*
X14647653Y-13759817D01*
X14914320Y-13826484D02*
X14914320Y-13626484D01*
X14914320Y-13816960D02*
X14895273Y-13826484D01*
X14895273Y-13826484D02*
X14857177Y-13826484D01*
X14857177Y-13826484D02*
X14838130Y-13816960D01*
X14838130Y-13816960D02*
X14828606Y-13807436D01*
X14828606Y-13807436D02*
X14819082Y-13788388D01*
X14819082Y-13788388D02*
X14819082Y-13731246D01*
X14819082Y-13731246D02*
X14828606Y-13712198D01*
X14828606Y-13712198D02*
X14838130Y-13702674D01*
X14838130Y-13702674D02*
X14857177Y-13693150D01*
X14857177Y-13693150D02*
X14895273Y-13693150D01*
X14895273Y-13693150D02*
X14914320Y-13702674D01*
X14990511Y-13902674D02*
X15000034Y-13893150D01*
X15000034Y-13893150D02*
X15019082Y-13864579D01*
X15019082Y-13864579D02*
X15028606Y-13845531D01*
X15028606Y-13845531D02*
X15038130Y-13816960D01*
X15038130Y-13816960D02*
X15047653Y-13769341D01*
X15047653Y-13769341D02*
X15047653Y-13731246D01*
X15047653Y-13731246D02*
X15038130Y-13683627D01*
X15038130Y-13683627D02*
X15028606Y-13655055D01*
X15028606Y-13655055D02*
X15019082Y-13636008D01*
X15019082Y-13636008D02*
X15000034Y-13607436D01*
X15000034Y-13607436D02*
X14990511Y-13597912D01*
X8396400Y-13999000D02*
G75*
G03*
X8396400Y-13999000I-100000J0D01*
G01*
X8638129Y-13890484D02*
X8761939Y-13890484D01*
X8761939Y-13890484D02*
X8695272Y-13966674D01*
X8695272Y-13966674D02*
X8723844Y-13966674D01*
X8723844Y-13966674D02*
X8742891Y-13976198D01*
X8742891Y-13976198D02*
X8752415Y-13985722D01*
X8752415Y-13985722D02*
X8761939Y-14004769D01*
X8761939Y-14004769D02*
X8761939Y-14052388D01*
X8761939Y-14052388D02*
X8752415Y-14071436D01*
X8752415Y-14071436D02*
X8742891Y-14080960D01*
X8742891Y-14080960D02*
X8723844Y-14090484D01*
X8723844Y-14090484D02*
X8666701Y-14090484D01*
X8666701Y-14090484D02*
X8647653Y-14080960D01*
X8647653Y-14080960D02*
X8638129Y-14071436D01*
X8847653Y-14071436D02*
X8857177Y-14080960D01*
X8857177Y-14080960D02*
X8847653Y-14090484D01*
X8847653Y-14090484D02*
X8838129Y-14080960D01*
X8838129Y-14080960D02*
X8847653Y-14071436D01*
X8847653Y-14071436D02*
X8847653Y-14090484D01*
X8933367Y-13909531D02*
X8942891Y-13900008D01*
X8942891Y-13900008D02*
X8961939Y-13890484D01*
X8961939Y-13890484D02*
X9009558Y-13890484D01*
X9009558Y-13890484D02*
X9028605Y-13900008D01*
X9028605Y-13900008D02*
X9038129Y-13909531D01*
X9038129Y-13909531D02*
X9047653Y-13928579D01*
X9047653Y-13928579D02*
X9047653Y-13947627D01*
X9047653Y-13947627D02*
X9038129Y-13976198D01*
X9038129Y-13976198D02*
X8923844Y-14090484D01*
X8923844Y-14090484D02*
X9047653Y-14090484D01*
X9171463Y-13890484D02*
X9190510Y-13890484D01*
X9190510Y-13890484D02*
X9209558Y-13900008D01*
X9209558Y-13900008D02*
X9219082Y-13909531D01*
X9219082Y-13909531D02*
X9228605Y-13928579D01*
X9228605Y-13928579D02*
X9238129Y-13966674D01*
X9238129Y-13966674D02*
X9238129Y-14014293D01*
X9238129Y-14014293D02*
X9228605Y-14052388D01*
X9228605Y-14052388D02*
X9219082Y-14071436D01*
X9219082Y-14071436D02*
X9209558Y-14080960D01*
X9209558Y-14080960D02*
X9190510Y-14090484D01*
X9190510Y-14090484D02*
X9171463Y-14090484D01*
X9171463Y-14090484D02*
X9152415Y-14080960D01*
X9152415Y-14080960D02*
X9142891Y-14071436D01*
X9142891Y-14071436D02*
X9133367Y-14052388D01*
X9133367Y-14052388D02*
X9123844Y-14014293D01*
X9123844Y-14014293D02*
X9123844Y-13966674D01*
X9123844Y-13966674D02*
X9133367Y-13928579D01*
X9133367Y-13928579D02*
X9142891Y-13909531D01*
X9142891Y-13909531D02*
X9152415Y-13900008D01*
X9152415Y-13900008D02*
X9171463Y-13890484D01*
X9361939Y-13890484D02*
X9380986Y-13890484D01*
X9380986Y-13890484D02*
X9400034Y-13900008D01*
X9400034Y-13900008D02*
X9409558Y-13909531D01*
X9409558Y-13909531D02*
X9419082Y-13928579D01*
X9419082Y-13928579D02*
X9428605Y-13966674D01*
X9428605Y-13966674D02*
X9428605Y-14014293D01*
X9428605Y-14014293D02*
X9419082Y-14052388D01*
X9419082Y-14052388D02*
X9409558Y-14071436D01*
X9409558Y-14071436D02*
X9400034Y-14080960D01*
X9400034Y-14080960D02*
X9380986Y-14090484D01*
X9380986Y-14090484D02*
X9361939Y-14090484D01*
X9361939Y-14090484D02*
X9342891Y-14080960D01*
X9342891Y-14080960D02*
X9333367Y-14071436D01*
X9333367Y-14071436D02*
X9323844Y-14052388D01*
X9323844Y-14052388D02*
X9314320Y-14014293D01*
X9314320Y-14014293D02*
X9314320Y-13966674D01*
X9314320Y-13966674D02*
X9323844Y-13928579D01*
X9323844Y-13928579D02*
X9333367Y-13909531D01*
X9333367Y-13909531D02*
X9342891Y-13900008D01*
X9342891Y-13900008D02*
X9361939Y-13890484D01*
X9514320Y-14090484D02*
X9514320Y-13957150D01*
X9514320Y-13976198D02*
X9523844Y-13966674D01*
X9523844Y-13966674D02*
X9542891Y-13957150D01*
X9542891Y-13957150D02*
X9571463Y-13957150D01*
X9571463Y-13957150D02*
X9590510Y-13966674D01*
X9590510Y-13966674D02*
X9600034Y-13985722D01*
X9600034Y-13985722D02*
X9600034Y-14090484D01*
X9600034Y-13985722D02*
X9609558Y-13966674D01*
X9609558Y-13966674D02*
X9628605Y-13957150D01*
X9628605Y-13957150D02*
X9657177Y-13957150D01*
X9657177Y-13957150D02*
X9676225Y-13966674D01*
X9676225Y-13966674D02*
X9685748Y-13985722D01*
X9685748Y-13985722D02*
X9685748Y-14090484D01*
X9780986Y-14090484D02*
X9780986Y-13957150D01*
X9780986Y-13976198D02*
X9790510Y-13966674D01*
X9790510Y-13966674D02*
X9809558Y-13957150D01*
X9809558Y-13957150D02*
X9838129Y-13957150D01*
X9838129Y-13957150D02*
X9857177Y-13966674D01*
X9857177Y-13966674D02*
X9866701Y-13985722D01*
X9866701Y-13985722D02*
X9866701Y-14090484D01*
X9866701Y-13985722D02*
X9876225Y-13966674D01*
X9876225Y-13966674D02*
X9895272Y-13957150D01*
X9895272Y-13957150D02*
X9923844Y-13957150D01*
X9923844Y-13957150D02*
X9942891Y-13966674D01*
X9942891Y-13966674D02*
X9952415Y-13985722D01*
X9952415Y-13985722D02*
X9952415Y-14090484D01*
X10342891Y-13880960D02*
X10171463Y-14138103D01*
X10600034Y-13890484D02*
X10619082Y-13890484D01*
X10619082Y-13890484D02*
X10638129Y-13900008D01*
X10638129Y-13900008D02*
X10647653Y-13909531D01*
X10647653Y-13909531D02*
X10657177Y-13928579D01*
X10657177Y-13928579D02*
X10666701Y-13966674D01*
X10666701Y-13966674D02*
X10666701Y-14014293D01*
X10666701Y-14014293D02*
X10657177Y-14052388D01*
X10657177Y-14052388D02*
X10647653Y-14071436D01*
X10647653Y-14071436D02*
X10638129Y-14080960D01*
X10638129Y-14080960D02*
X10619082Y-14090484D01*
X10619082Y-14090484D02*
X10600034Y-14090484D01*
X10600034Y-14090484D02*
X10580987Y-14080960D01*
X10580987Y-14080960D02*
X10571463Y-14071436D01*
X10571463Y-14071436D02*
X10561939Y-14052388D01*
X10561939Y-14052388D02*
X10552415Y-14014293D01*
X10552415Y-14014293D02*
X10552415Y-13966674D01*
X10552415Y-13966674D02*
X10561939Y-13928579D01*
X10561939Y-13928579D02*
X10571463Y-13909531D01*
X10571463Y-13909531D02*
X10580987Y-13900008D01*
X10580987Y-13900008D02*
X10600034Y-13890484D01*
X10752415Y-14071436D02*
X10761939Y-14080960D01*
X10761939Y-14080960D02*
X10752415Y-14090484D01*
X10752415Y-14090484D02*
X10742891Y-14080960D01*
X10742891Y-14080960D02*
X10752415Y-14071436D01*
X10752415Y-14071436D02*
X10752415Y-14090484D01*
X10952415Y-14090484D02*
X10838129Y-14090484D01*
X10895272Y-14090484D02*
X10895272Y-13890484D01*
X10895272Y-13890484D02*
X10876225Y-13919055D01*
X10876225Y-13919055D02*
X10857177Y-13938103D01*
X10857177Y-13938103D02*
X10838129Y-13947627D01*
X11028606Y-13909531D02*
X11038129Y-13900008D01*
X11038129Y-13900008D02*
X11057177Y-13890484D01*
X11057177Y-13890484D02*
X11104796Y-13890484D01*
X11104796Y-13890484D02*
X11123844Y-13900008D01*
X11123844Y-13900008D02*
X11133368Y-13909531D01*
X11133368Y-13909531D02*
X11142891Y-13928579D01*
X11142891Y-13928579D02*
X11142891Y-13947627D01*
X11142891Y-13947627D02*
X11133368Y-13976198D01*
X11133368Y-13976198D02*
X11019082Y-14090484D01*
X11019082Y-14090484D02*
X11142891Y-14090484D01*
X11314320Y-13890484D02*
X11276225Y-13890484D01*
X11276225Y-13890484D02*
X11257177Y-13900008D01*
X11257177Y-13900008D02*
X11247653Y-13909531D01*
X11247653Y-13909531D02*
X11228606Y-13938103D01*
X11228606Y-13938103D02*
X11219082Y-13976198D01*
X11219082Y-13976198D02*
X11219082Y-14052388D01*
X11219082Y-14052388D02*
X11228606Y-14071436D01*
X11228606Y-14071436D02*
X11238129Y-14080960D01*
X11238129Y-14080960D02*
X11257177Y-14090484D01*
X11257177Y-14090484D02*
X11295272Y-14090484D01*
X11295272Y-14090484D02*
X11314320Y-14080960D01*
X11314320Y-14080960D02*
X11323844Y-14071436D01*
X11323844Y-14071436D02*
X11333367Y-14052388D01*
X11333367Y-14052388D02*
X11333367Y-14004769D01*
X11333367Y-14004769D02*
X11323844Y-13985722D01*
X11323844Y-13985722D02*
X11314320Y-13976198D01*
X11314320Y-13976198D02*
X11295272Y-13966674D01*
X11295272Y-13966674D02*
X11257177Y-13966674D01*
X11257177Y-13966674D02*
X11238129Y-13976198D01*
X11238129Y-13976198D02*
X11228606Y-13985722D01*
X11228606Y-13985722D02*
X11219082Y-14004769D01*
X11457177Y-13890484D02*
X11476225Y-13890484D01*
X11476225Y-13890484D02*
X11495272Y-13900008D01*
X11495272Y-13900008D02*
X11504796Y-13909531D01*
X11504796Y-13909531D02*
X11514320Y-13928579D01*
X11514320Y-13928579D02*
X11523844Y-13966674D01*
X11523844Y-13966674D02*
X11523844Y-14014293D01*
X11523844Y-14014293D02*
X11514320Y-14052388D01*
X11514320Y-14052388D02*
X11504796Y-14071436D01*
X11504796Y-14071436D02*
X11495272Y-14080960D01*
X11495272Y-14080960D02*
X11476225Y-14090484D01*
X11476225Y-14090484D02*
X11457177Y-14090484D01*
X11457177Y-14090484D02*
X11438129Y-14080960D01*
X11438129Y-14080960D02*
X11428606Y-14071436D01*
X11428606Y-14071436D02*
X11419082Y-14052388D01*
X11419082Y-14052388D02*
X11409558Y-14014293D01*
X11409558Y-14014293D02*
X11409558Y-13966674D01*
X11409558Y-13966674D02*
X11419082Y-13928579D01*
X11419082Y-13928579D02*
X11428606Y-13909531D01*
X11428606Y-13909531D02*
X11438129Y-13900008D01*
X11438129Y-13900008D02*
X11457177Y-13890484D01*
X11600034Y-13890484D02*
X11600034Y-13928579D01*
X11676225Y-13890484D02*
X11676225Y-13928579D01*
X11971463Y-14166674D02*
X11961939Y-14157150D01*
X11961939Y-14157150D02*
X11942891Y-14128579D01*
X11942891Y-14128579D02*
X11933368Y-14109531D01*
X11933368Y-14109531D02*
X11923844Y-14080960D01*
X11923844Y-14080960D02*
X11914320Y-14033341D01*
X11914320Y-14033341D02*
X11914320Y-13995246D01*
X11914320Y-13995246D02*
X11923844Y-13947627D01*
X11923844Y-13947627D02*
X11933368Y-13919055D01*
X11933368Y-13919055D02*
X11942891Y-13900008D01*
X11942891Y-13900008D02*
X11961939Y-13871436D01*
X11961939Y-13871436D02*
X11971463Y-13861912D01*
X12133368Y-13957150D02*
X12133368Y-14090484D01*
X12085748Y-13880960D02*
X12038129Y-14023817D01*
X12038129Y-14023817D02*
X12161939Y-14023817D01*
X12390510Y-14090484D02*
X12390510Y-13890484D01*
X12476225Y-14090484D02*
X12476225Y-13985722D01*
X12476225Y-13985722D02*
X12466701Y-13966674D01*
X12466701Y-13966674D02*
X12447653Y-13957150D01*
X12447653Y-13957150D02*
X12419082Y-13957150D01*
X12419082Y-13957150D02*
X12400034Y-13966674D01*
X12400034Y-13966674D02*
X12390510Y-13976198D01*
X12600034Y-14090484D02*
X12580987Y-14080960D01*
X12580987Y-14080960D02*
X12571463Y-14071436D01*
X12571463Y-14071436D02*
X12561939Y-14052388D01*
X12561939Y-14052388D02*
X12561939Y-13995246D01*
X12561939Y-13995246D02*
X12571463Y-13976198D01*
X12571463Y-13976198D02*
X12580987Y-13966674D01*
X12580987Y-13966674D02*
X12600034Y-13957150D01*
X12600034Y-13957150D02*
X12628606Y-13957150D01*
X12628606Y-13957150D02*
X12647653Y-13966674D01*
X12647653Y-13966674D02*
X12657177Y-13976198D01*
X12657177Y-13976198D02*
X12666701Y-13995246D01*
X12666701Y-13995246D02*
X12666701Y-14052388D01*
X12666701Y-14052388D02*
X12657177Y-14071436D01*
X12657177Y-14071436D02*
X12647653Y-14080960D01*
X12647653Y-14080960D02*
X12628606Y-14090484D01*
X12628606Y-14090484D02*
X12600034Y-14090484D01*
X12780987Y-14090484D02*
X12761939Y-14080960D01*
X12761939Y-14080960D02*
X12752415Y-14061912D01*
X12752415Y-14061912D02*
X12752415Y-13890484D01*
X12933368Y-14080960D02*
X12914320Y-14090484D01*
X12914320Y-14090484D02*
X12876225Y-14090484D01*
X12876225Y-14090484D02*
X12857177Y-14080960D01*
X12857177Y-14080960D02*
X12847653Y-14061912D01*
X12847653Y-14061912D02*
X12847653Y-13985722D01*
X12847653Y-13985722D02*
X12857177Y-13966674D01*
X12857177Y-13966674D02*
X12876225Y-13957150D01*
X12876225Y-13957150D02*
X12914320Y-13957150D01*
X12914320Y-13957150D02*
X12933368Y-13966674D01*
X12933368Y-13966674D02*
X12942891Y-13985722D01*
X12942891Y-13985722D02*
X12942891Y-14004769D01*
X12942891Y-14004769D02*
X12847653Y-14023817D01*
X13019082Y-14080960D02*
X13038130Y-14090484D01*
X13038130Y-14090484D02*
X13076225Y-14090484D01*
X13076225Y-14090484D02*
X13095272Y-14080960D01*
X13095272Y-14080960D02*
X13104796Y-14061912D01*
X13104796Y-14061912D02*
X13104796Y-14052388D01*
X13104796Y-14052388D02*
X13095272Y-14033341D01*
X13095272Y-14033341D02*
X13076225Y-14023817D01*
X13076225Y-14023817D02*
X13047653Y-14023817D01*
X13047653Y-14023817D02*
X13028606Y-14014293D01*
X13028606Y-14014293D02*
X13019082Y-13995246D01*
X13019082Y-13995246D02*
X13019082Y-13985722D01*
X13019082Y-13985722D02*
X13028606Y-13966674D01*
X13028606Y-13966674D02*
X13047653Y-13957150D01*
X13047653Y-13957150D02*
X13076225Y-13957150D01*
X13076225Y-13957150D02*
X13095272Y-13966674D01*
X13171463Y-14166674D02*
X13180987Y-14157150D01*
X13180987Y-14157150D02*
X13200034Y-14128579D01*
X13200034Y-14128579D02*
X13209558Y-14109531D01*
X13209558Y-14109531D02*
X13219082Y-14080960D01*
X13219082Y-14080960D02*
X13228606Y-14033341D01*
X13228606Y-14033341D02*
X13228606Y-13995246D01*
X13228606Y-13995246D02*
X13219082Y-13947627D01*
X13219082Y-13947627D02*
X13209558Y-13919055D01*
X13209558Y-13919055D02*
X13200034Y-13900008D01*
X13200034Y-13900008D02*
X13180987Y-13871436D01*
X13180987Y-13871436D02*
X13171463Y-13861912D01*
X13533368Y-14166674D02*
X13523844Y-14157150D01*
X13523844Y-14157150D02*
X13504796Y-14128579D01*
X13504796Y-14128579D02*
X13495272Y-14109531D01*
X13495272Y-14109531D02*
X13485749Y-14080960D01*
X13485749Y-14080960D02*
X13476225Y-14033341D01*
X13476225Y-14033341D02*
X13476225Y-13995246D01*
X13476225Y-13995246D02*
X13485749Y-13947627D01*
X13485749Y-13947627D02*
X13495272Y-13919055D01*
X13495272Y-13919055D02*
X13504796Y-13900008D01*
X13504796Y-13900008D02*
X13523844Y-13871436D01*
X13523844Y-13871436D02*
X13533368Y-13861912D01*
X13609558Y-13957150D02*
X13609558Y-14090484D01*
X13609558Y-13976198D02*
X13619082Y-13966674D01*
X13619082Y-13966674D02*
X13638130Y-13957150D01*
X13638130Y-13957150D02*
X13666701Y-13957150D01*
X13666701Y-13957150D02*
X13685749Y-13966674D01*
X13685749Y-13966674D02*
X13695272Y-13985722D01*
X13695272Y-13985722D02*
X13695272Y-14090484D01*
X13819082Y-14090484D02*
X13800034Y-14080960D01*
X13800034Y-14080960D02*
X13790511Y-14071436D01*
X13790511Y-14071436D02*
X13780987Y-14052388D01*
X13780987Y-14052388D02*
X13780987Y-13995246D01*
X13780987Y-13995246D02*
X13790511Y-13976198D01*
X13790511Y-13976198D02*
X13800034Y-13966674D01*
X13800034Y-13966674D02*
X13819082Y-13957150D01*
X13819082Y-13957150D02*
X13847653Y-13957150D01*
X13847653Y-13957150D02*
X13866701Y-13966674D01*
X13866701Y-13966674D02*
X13876225Y-13976198D01*
X13876225Y-13976198D02*
X13885749Y-13995246D01*
X13885749Y-13995246D02*
X13885749Y-14052388D01*
X13885749Y-14052388D02*
X13876225Y-14071436D01*
X13876225Y-14071436D02*
X13866701Y-14080960D01*
X13866701Y-14080960D02*
X13847653Y-14090484D01*
X13847653Y-14090484D02*
X13819082Y-14090484D01*
X13942892Y-13957150D02*
X14019082Y-13957150D01*
X13971463Y-13890484D02*
X13971463Y-14061912D01*
X13971463Y-14061912D02*
X13980987Y-14080960D01*
X13980987Y-14080960D02*
X14000034Y-14090484D01*
X14000034Y-14090484D02*
X14019082Y-14090484D01*
X14238130Y-13957150D02*
X14238130Y-14157150D01*
X14238130Y-13966674D02*
X14257177Y-13957150D01*
X14257177Y-13957150D02*
X14295273Y-13957150D01*
X14295273Y-13957150D02*
X14314320Y-13966674D01*
X14314320Y-13966674D02*
X14323844Y-13976198D01*
X14323844Y-13976198D02*
X14333368Y-13995246D01*
X14333368Y-13995246D02*
X14333368Y-14052388D01*
X14333368Y-14052388D02*
X14323844Y-14071436D01*
X14323844Y-14071436D02*
X14314320Y-14080960D01*
X14314320Y-14080960D02*
X14295273Y-14090484D01*
X14295273Y-14090484D02*
X14257177Y-14090484D01*
X14257177Y-14090484D02*
X14238130Y-14080960D01*
X14447653Y-14090484D02*
X14428606Y-14080960D01*
X14428606Y-14080960D02*
X14419082Y-14061912D01*
X14419082Y-14061912D02*
X14419082Y-13890484D01*
X14609558Y-14090484D02*
X14609558Y-13985722D01*
X14609558Y-13985722D02*
X14600034Y-13966674D01*
X14600034Y-13966674D02*
X14580987Y-13957150D01*
X14580987Y-13957150D02*
X14542892Y-13957150D01*
X14542892Y-13957150D02*
X14523844Y-13966674D01*
X14609558Y-14080960D02*
X14590511Y-14090484D01*
X14590511Y-14090484D02*
X14542892Y-14090484D01*
X14542892Y-14090484D02*
X14523844Y-14080960D01*
X14523844Y-14080960D02*
X14514320Y-14061912D01*
X14514320Y-14061912D02*
X14514320Y-14042865D01*
X14514320Y-14042865D02*
X14523844Y-14023817D01*
X14523844Y-14023817D02*
X14542892Y-14014293D01*
X14542892Y-14014293D02*
X14590511Y-14014293D01*
X14590511Y-14014293D02*
X14609558Y-14004769D01*
X14676225Y-13957150D02*
X14752415Y-13957150D01*
X14704796Y-13890484D02*
X14704796Y-14061912D01*
X14704796Y-14061912D02*
X14714320Y-14080960D01*
X14714320Y-14080960D02*
X14733368Y-14090484D01*
X14733368Y-14090484D02*
X14752415Y-14090484D01*
X14895273Y-14080960D02*
X14876225Y-14090484D01*
X14876225Y-14090484D02*
X14838130Y-14090484D01*
X14838130Y-14090484D02*
X14819082Y-14080960D01*
X14819082Y-14080960D02*
X14809558Y-14061912D01*
X14809558Y-14061912D02*
X14809558Y-13985722D01*
X14809558Y-13985722D02*
X14819082Y-13966674D01*
X14819082Y-13966674D02*
X14838130Y-13957150D01*
X14838130Y-13957150D02*
X14876225Y-13957150D01*
X14876225Y-13957150D02*
X14895273Y-13966674D01*
X14895273Y-13966674D02*
X14904796Y-13985722D01*
X14904796Y-13985722D02*
X14904796Y-14004769D01*
X14904796Y-14004769D02*
X14809558Y-14023817D01*
X15076225Y-14090484D02*
X15076225Y-13890484D01*
X15076225Y-14080960D02*
X15057177Y-14090484D01*
X15057177Y-14090484D02*
X15019082Y-14090484D01*
X15019082Y-14090484D02*
X15000034Y-14080960D01*
X15000034Y-14080960D02*
X14990511Y-14071436D01*
X14990511Y-14071436D02*
X14980987Y-14052388D01*
X14980987Y-14052388D02*
X14980987Y-13995246D01*
X14980987Y-13995246D02*
X14990511Y-13976198D01*
X14990511Y-13976198D02*
X15000034Y-13966674D01*
X15000034Y-13966674D02*
X15019082Y-13957150D01*
X15019082Y-13957150D02*
X15057177Y-13957150D01*
X15057177Y-13957150D02*
X15076225Y-13966674D01*
X15152415Y-14166674D02*
X15161939Y-14157150D01*
X15161939Y-14157150D02*
X15180987Y-14128579D01*
X15180987Y-14128579D02*
X15190511Y-14109531D01*
X15190511Y-14109531D02*
X15200034Y-14080960D01*
X15200034Y-14080960D02*
X15209558Y-14033341D01*
X15209558Y-14033341D02*
X15209558Y-13995246D01*
X15209558Y-13995246D02*
X15200034Y-13947627D01*
X15200034Y-13947627D02*
X15190511Y-13919055D01*
X15190511Y-13919055D02*
X15180987Y-13900008D01*
X15180987Y-13900008D02*
X15161939Y-13871436D01*
X15161939Y-13871436D02*
X15152415Y-13861912D01*
M02*
