%TF.GenerationSoftware,KiCad,Pcbnew,7.0.5*%
%TF.CreationDate,2024-01-22T16:17:07+01:00*%
%TF.ProjectId,Panel_Luminoso_V2,50616e65-6c5f-44c7-956d-696e6f736f5f,rev?*%
%TF.SameCoordinates,Original*%
%TF.FileFunction,Drillmap*%
%TF.FilePolarity,Positive*%
%FSLAX45Y45*%
G04 Gerber Fmt 4.5, Leading zero omitted, Abs format (unit mm)*
G04 Created by KiCad (PCBNEW 7.0.5) date 2024-01-22 16:17:07*
%MOMM*%
%LPD*%
G01*
G04 APERTURE LIST*
%ADD10C,0.100000*%
%ADD11C,0.200000*%
%ADD12C,0.080000*%
%ADD13C,0.095000*%
%ADD14C,0.102000*%
%ADD15C,0.120000*%
G04 APERTURE END LIST*
D10*
X8401400Y-6740000D02*
X21899400Y-6740000D01*
X21899400Y-13090000D01*
X8401400Y-13090000D01*
X8401400Y-6740000D01*
D11*
D12*
X12650000Y-8500000D02*
X12730000Y-8580000D01*
X12730000Y-8500000D02*
X12650000Y-8580000D01*
X20610000Y-9450000D02*
X20690000Y-9530000D01*
X20690000Y-9450000D02*
X20610000Y-9530000D01*
D13*
X21147500Y-8910000D02*
G75*
G03*
X21147500Y-8910000I-47500J0D01*
G01*
X21147500Y-9160000D02*
G75*
G03*
X21147500Y-9160000I-47500J0D01*
G01*
X21147500Y-9410000D02*
G75*
G03*
X21147500Y-9410000I-47500J0D01*
G01*
X21147500Y-9660000D02*
G75*
G03*
X21147500Y-9660000I-47500J0D01*
G01*
X21147500Y-9910000D02*
G75*
G03*
X21147500Y-9910000I-47500J0D01*
G01*
X21147500Y-10160000D02*
G75*
G03*
X21147500Y-10160000I-47500J0D01*
G01*
X21147500Y-10410000D02*
G75*
G03*
X21147500Y-10410000I-47500J0D01*
G01*
X21147500Y-10660000D02*
G75*
G03*
X21147500Y-10660000I-47500J0D01*
G01*
D10*
X9449400Y-8221300D02*
X9449400Y-8321300D01*
X9399400Y-8271300D02*
X9499400Y-8271300D01*
X9449400Y-8475800D02*
X9449400Y-8575800D01*
X9399400Y-8525800D02*
X9499400Y-8525800D01*
X9449400Y-8729800D02*
X9449400Y-8829800D01*
X9399400Y-8779800D02*
X9499400Y-8779800D01*
X9449400Y-8983800D02*
X9449400Y-9083800D01*
X9399400Y-9033800D02*
X9499400Y-9033800D01*
X9449400Y-9237800D02*
X9449400Y-9337800D01*
X9399400Y-9287800D02*
X9499400Y-9287800D01*
X9449400Y-9491800D02*
X9449400Y-9591800D01*
X9399400Y-9541800D02*
X9499400Y-9541800D01*
X9449400Y-9745800D02*
X9449400Y-9845800D01*
X9399400Y-9795800D02*
X9499400Y-9795800D01*
X9449400Y-9999800D02*
X9449400Y-10099800D01*
X9399400Y-10049800D02*
X9499400Y-10049800D01*
X9449400Y-10253800D02*
X9449400Y-10353800D01*
X9399400Y-10303800D02*
X9499400Y-10303800D01*
X9449400Y-10507800D02*
X9449400Y-10607800D01*
X9399400Y-10557800D02*
X9499400Y-10557800D01*
X9449400Y-10761800D02*
X9449400Y-10861800D01*
X9399400Y-10811800D02*
X9499400Y-10811800D01*
X9449400Y-11015800D02*
X9449400Y-11115800D01*
X9399400Y-11065800D02*
X9499400Y-11065800D01*
X9449400Y-11269800D02*
X9449400Y-11369800D01*
X9399400Y-11319800D02*
X9499400Y-11319800D01*
X9449400Y-11523800D02*
X9449400Y-11623800D01*
X9399400Y-11573800D02*
X9499400Y-11573800D01*
X13827400Y-11789800D02*
X13827400Y-11889800D01*
X13777400Y-11839800D02*
X13877400Y-11839800D01*
D11*
X13877400Y-11939800D02*
X13877400Y-11739800D01*
X13877400Y-11739800D02*
G75*
G03*
X13777400Y-11739800I-50000J0D01*
G01*
X13777400Y-11739800D02*
X13777400Y-11939800D01*
X13777400Y-11939800D02*
G75*
G03*
X13877400Y-11939800I50000J0D01*
G01*
D10*
X14297400Y-11489800D02*
X14297400Y-11589800D01*
X14247400Y-11539800D02*
X14347400Y-11539800D01*
D11*
X14197400Y-11589800D02*
X14397400Y-11589800D01*
X14397400Y-11589800D02*
G75*
G03*
X14397400Y-11489800I0J50000D01*
G01*
X14397400Y-11489800D02*
X14197400Y-11489800D01*
X14197400Y-11489800D02*
G75*
G03*
X14197400Y-11589800I0J-50000D01*
G01*
D10*
X14297400Y-12089800D02*
X14297400Y-12189800D01*
X14247400Y-12139800D02*
X14347400Y-12139800D01*
D11*
X14197400Y-12189800D02*
X14397400Y-12189800D01*
X14397400Y-12189800D02*
G75*
G03*
X14397400Y-12089800I0J50000D01*
G01*
X14397400Y-12089800D02*
X14197400Y-12089800D01*
X14197400Y-12089800D02*
G75*
G03*
X14197400Y-12189800I0J-50000D01*
G01*
D10*
X19845400Y-9471800D02*
X19845400Y-9571800D01*
X19795400Y-9521800D02*
X19895400Y-9521800D01*
X19845400Y-9725800D02*
X19845400Y-9825800D01*
X19795400Y-9775800D02*
X19895400Y-9775800D01*
X19845400Y-9979800D02*
X19845400Y-10079800D01*
X19795400Y-10029800D02*
X19895400Y-10029800D01*
X19847400Y-10231800D02*
X19847400Y-10331800D01*
X19797400Y-10281800D02*
X19897400Y-10281800D01*
D14*
X10773463Y-7885863D02*
X10773463Y-7813737D01*
X10701337Y-7813737D01*
X10701337Y-7885863D01*
X10773463Y-7885863D01*
X10773463Y-8139863D02*
X10773463Y-8067737D01*
X10701337Y-8067737D01*
X10701337Y-8139863D01*
X10773463Y-8139863D01*
X10773463Y-8393863D02*
X10773463Y-8321737D01*
X10701337Y-8321737D01*
X10701337Y-8393863D01*
X10773463Y-8393863D01*
X10773463Y-8647863D02*
X10773463Y-8575737D01*
X10701337Y-8575737D01*
X10701337Y-8647863D01*
X10773463Y-8647863D01*
X10773463Y-8901863D02*
X10773463Y-8829737D01*
X10701337Y-8829737D01*
X10701337Y-8901863D01*
X10773463Y-8901863D01*
X10773463Y-9155863D02*
X10773463Y-9083737D01*
X10701337Y-9083737D01*
X10701337Y-9155863D01*
X10773463Y-9155863D01*
X10773463Y-9409863D02*
X10773463Y-9337737D01*
X10701337Y-9337737D01*
X10701337Y-9409863D01*
X10773463Y-9409863D01*
X10773463Y-9663863D02*
X10773463Y-9591737D01*
X10701337Y-9591737D01*
X10701337Y-9663863D01*
X10773463Y-9663863D01*
X10773463Y-9917863D02*
X10773463Y-9845737D01*
X10701337Y-9845737D01*
X10701337Y-9917863D01*
X10773463Y-9917863D01*
X10773463Y-10171863D02*
X10773463Y-10099737D01*
X10701337Y-10099737D01*
X10701337Y-10171863D01*
X10773463Y-10171863D01*
X10773463Y-10425863D02*
X10773463Y-10353737D01*
X10701337Y-10353737D01*
X10701337Y-10425863D01*
X10773463Y-10425863D01*
X10773463Y-10679863D02*
X10773463Y-10607737D01*
X10701337Y-10607737D01*
X10701337Y-10679863D01*
X10773463Y-10679863D01*
X10773463Y-10933863D02*
X10773463Y-10861737D01*
X10701337Y-10861737D01*
X10701337Y-10933863D01*
X10773463Y-10933863D01*
X10773463Y-11187863D02*
X10773463Y-11115737D01*
X10701337Y-11115737D01*
X10701337Y-11187863D01*
X10773463Y-11187863D01*
X10773463Y-11441863D02*
X10773463Y-11369737D01*
X10701337Y-11369737D01*
X10701337Y-11441863D01*
X10773463Y-11441863D01*
X13313463Y-7885863D02*
X13313463Y-7813737D01*
X13241337Y-7813737D01*
X13241337Y-7885863D01*
X13313463Y-7885863D01*
X13313463Y-8139863D02*
X13313463Y-8067737D01*
X13241337Y-8067737D01*
X13241337Y-8139863D01*
X13313463Y-8139863D01*
X13313463Y-8393863D02*
X13313463Y-8321737D01*
X13241337Y-8321737D01*
X13241337Y-8393863D01*
X13313463Y-8393863D01*
X13313463Y-8647863D02*
X13313463Y-8575737D01*
X13241337Y-8575737D01*
X13241337Y-8647863D01*
X13313463Y-8647863D01*
X13313463Y-8901863D02*
X13313463Y-8829737D01*
X13241337Y-8829737D01*
X13241337Y-8901863D01*
X13313463Y-8901863D01*
X13313463Y-9155863D02*
X13313463Y-9083737D01*
X13241337Y-9083737D01*
X13241337Y-9155863D01*
X13313463Y-9155863D01*
X13313463Y-9409863D02*
X13313463Y-9337737D01*
X13241337Y-9337737D01*
X13241337Y-9409863D01*
X13313463Y-9409863D01*
X13313463Y-9663863D02*
X13313463Y-9591737D01*
X13241337Y-9591737D01*
X13241337Y-9663863D01*
X13313463Y-9663863D01*
X13313463Y-9917863D02*
X13313463Y-9845737D01*
X13241337Y-9845737D01*
X13241337Y-9917863D01*
X13313463Y-9917863D01*
X13313463Y-10171863D02*
X13313463Y-10099737D01*
X13241337Y-10099737D01*
X13241337Y-10171863D01*
X13313463Y-10171863D01*
X13313463Y-10425863D02*
X13313463Y-10353737D01*
X13241337Y-10353737D01*
X13241337Y-10425863D01*
X13313463Y-10425863D01*
X13313463Y-10679863D02*
X13313463Y-10607737D01*
X13241337Y-10607737D01*
X13241337Y-10679863D01*
X13313463Y-10679863D01*
X13313463Y-10933863D02*
X13313463Y-10861737D01*
X13241337Y-10861737D01*
X13241337Y-10933863D01*
X13313463Y-10933863D01*
X13313463Y-11187863D02*
X13313463Y-11115737D01*
X13241337Y-11115737D01*
X13241337Y-11187863D01*
X13313463Y-11187863D01*
X13313463Y-11441863D02*
X13313463Y-11369737D01*
X13241337Y-11369737D01*
X13241337Y-11441863D01*
X13313463Y-11441863D01*
D15*
X15552750Y-7836350D02*
X15612750Y-7776350D01*
X15552750Y-7716350D01*
X15492750Y-7776350D01*
X15552750Y-7836350D01*
X15552750Y-11786050D02*
X15612750Y-11726050D01*
X15552750Y-11666050D01*
X15492750Y-11726050D01*
X15552750Y-11786050D01*
X17267250Y-7836350D02*
X17327250Y-7776350D01*
X17267250Y-7716350D01*
X17207250Y-7776350D01*
X17267250Y-7836350D01*
X17267250Y-11786050D02*
X17327250Y-11726050D01*
X17267250Y-11666050D01*
X17207250Y-11726050D01*
X17267250Y-11786050D01*
D11*
X8657177Y-13406484D02*
X8657177Y-13206484D01*
X8657177Y-13206484D02*
X8704796Y-13206484D01*
X8704796Y-13206484D02*
X8733367Y-13216008D01*
X8733367Y-13216008D02*
X8752415Y-13235055D01*
X8752415Y-13235055D02*
X8761939Y-13254103D01*
X8761939Y-13254103D02*
X8771463Y-13292198D01*
X8771463Y-13292198D02*
X8771463Y-13320769D01*
X8771463Y-13320769D02*
X8761939Y-13358865D01*
X8761939Y-13358865D02*
X8752415Y-13377912D01*
X8752415Y-13377912D02*
X8733367Y-13396960D01*
X8733367Y-13396960D02*
X8704796Y-13406484D01*
X8704796Y-13406484D02*
X8657177Y-13406484D01*
X8857177Y-13406484D02*
X8857177Y-13273150D01*
X8857177Y-13311246D02*
X8866701Y-13292198D01*
X8866701Y-13292198D02*
X8876224Y-13282674D01*
X8876224Y-13282674D02*
X8895272Y-13273150D01*
X8895272Y-13273150D02*
X8914320Y-13273150D01*
X8980986Y-13406484D02*
X8980986Y-13273150D01*
X8980986Y-13206484D02*
X8971463Y-13216008D01*
X8971463Y-13216008D02*
X8980986Y-13225531D01*
X8980986Y-13225531D02*
X8990510Y-13216008D01*
X8990510Y-13216008D02*
X8980986Y-13206484D01*
X8980986Y-13206484D02*
X8980986Y-13225531D01*
X9104796Y-13406484D02*
X9085748Y-13396960D01*
X9085748Y-13396960D02*
X9076224Y-13377912D01*
X9076224Y-13377912D02*
X9076224Y-13206484D01*
X9209558Y-13406484D02*
X9190510Y-13396960D01*
X9190510Y-13396960D02*
X9180986Y-13377912D01*
X9180986Y-13377912D02*
X9180986Y-13206484D01*
X9438129Y-13406484D02*
X9438129Y-13206484D01*
X9438129Y-13206484D02*
X9504796Y-13349341D01*
X9504796Y-13349341D02*
X9571463Y-13206484D01*
X9571463Y-13206484D02*
X9571463Y-13406484D01*
X9752415Y-13406484D02*
X9752415Y-13301722D01*
X9752415Y-13301722D02*
X9742891Y-13282674D01*
X9742891Y-13282674D02*
X9723844Y-13273150D01*
X9723844Y-13273150D02*
X9685748Y-13273150D01*
X9685748Y-13273150D02*
X9666701Y-13282674D01*
X9752415Y-13396960D02*
X9733367Y-13406484D01*
X9733367Y-13406484D02*
X9685748Y-13406484D01*
X9685748Y-13406484D02*
X9666701Y-13396960D01*
X9666701Y-13396960D02*
X9657177Y-13377912D01*
X9657177Y-13377912D02*
X9657177Y-13358865D01*
X9657177Y-13358865D02*
X9666701Y-13339817D01*
X9666701Y-13339817D02*
X9685748Y-13330293D01*
X9685748Y-13330293D02*
X9733367Y-13330293D01*
X9733367Y-13330293D02*
X9752415Y-13320769D01*
X9847653Y-13273150D02*
X9847653Y-13473150D01*
X9847653Y-13282674D02*
X9866701Y-13273150D01*
X9866701Y-13273150D02*
X9904796Y-13273150D01*
X9904796Y-13273150D02*
X9923844Y-13282674D01*
X9923844Y-13282674D02*
X9933367Y-13292198D01*
X9933367Y-13292198D02*
X9942891Y-13311246D01*
X9942891Y-13311246D02*
X9942891Y-13368388D01*
X9942891Y-13368388D02*
X9933367Y-13387436D01*
X9933367Y-13387436D02*
X9923844Y-13396960D01*
X9923844Y-13396960D02*
X9904796Y-13406484D01*
X9904796Y-13406484D02*
X9866701Y-13406484D01*
X9866701Y-13406484D02*
X9847653Y-13396960D01*
X10028605Y-13387436D02*
X10038129Y-13396960D01*
X10038129Y-13396960D02*
X10028605Y-13406484D01*
X10028605Y-13406484D02*
X10019082Y-13396960D01*
X10019082Y-13396960D02*
X10028605Y-13387436D01*
X10028605Y-13387436D02*
X10028605Y-13406484D01*
X10028605Y-13282674D02*
X10038129Y-13292198D01*
X10038129Y-13292198D02*
X10028605Y-13301722D01*
X10028605Y-13301722D02*
X10019082Y-13292198D01*
X10019082Y-13292198D02*
X10028605Y-13282674D01*
X10028605Y-13282674D02*
X10028605Y-13301722D01*
D12*
X8316400Y-13695000D02*
X8396400Y-13775000D01*
X8396400Y-13695000D02*
X8316400Y-13775000D01*
D11*
X8695272Y-13626484D02*
X8714320Y-13626484D01*
X8714320Y-13626484D02*
X8733367Y-13636008D01*
X8733367Y-13636008D02*
X8742891Y-13645531D01*
X8742891Y-13645531D02*
X8752415Y-13664579D01*
X8752415Y-13664579D02*
X8761939Y-13702674D01*
X8761939Y-13702674D02*
X8761939Y-13750293D01*
X8761939Y-13750293D02*
X8752415Y-13788388D01*
X8752415Y-13788388D02*
X8742891Y-13807436D01*
X8742891Y-13807436D02*
X8733367Y-13816960D01*
X8733367Y-13816960D02*
X8714320Y-13826484D01*
X8714320Y-13826484D02*
X8695272Y-13826484D01*
X8695272Y-13826484D02*
X8676224Y-13816960D01*
X8676224Y-13816960D02*
X8666701Y-13807436D01*
X8666701Y-13807436D02*
X8657177Y-13788388D01*
X8657177Y-13788388D02*
X8647653Y-13750293D01*
X8647653Y-13750293D02*
X8647653Y-13702674D01*
X8647653Y-13702674D02*
X8657177Y-13664579D01*
X8657177Y-13664579D02*
X8666701Y-13645531D01*
X8666701Y-13645531D02*
X8676224Y-13636008D01*
X8676224Y-13636008D02*
X8695272Y-13626484D01*
X8847653Y-13807436D02*
X8857177Y-13816960D01*
X8857177Y-13816960D02*
X8847653Y-13826484D01*
X8847653Y-13826484D02*
X8838129Y-13816960D01*
X8838129Y-13816960D02*
X8847653Y-13807436D01*
X8847653Y-13807436D02*
X8847653Y-13826484D01*
X8971463Y-13712198D02*
X8952415Y-13702674D01*
X8952415Y-13702674D02*
X8942891Y-13693150D01*
X8942891Y-13693150D02*
X8933367Y-13674103D01*
X8933367Y-13674103D02*
X8933367Y-13664579D01*
X8933367Y-13664579D02*
X8942891Y-13645531D01*
X8942891Y-13645531D02*
X8952415Y-13636008D01*
X8952415Y-13636008D02*
X8971463Y-13626484D01*
X8971463Y-13626484D02*
X9009558Y-13626484D01*
X9009558Y-13626484D02*
X9028605Y-13636008D01*
X9028605Y-13636008D02*
X9038129Y-13645531D01*
X9038129Y-13645531D02*
X9047653Y-13664579D01*
X9047653Y-13664579D02*
X9047653Y-13674103D01*
X9047653Y-13674103D02*
X9038129Y-13693150D01*
X9038129Y-13693150D02*
X9028605Y-13702674D01*
X9028605Y-13702674D02*
X9009558Y-13712198D01*
X9009558Y-13712198D02*
X8971463Y-13712198D01*
X8971463Y-13712198D02*
X8952415Y-13721722D01*
X8952415Y-13721722D02*
X8942891Y-13731246D01*
X8942891Y-13731246D02*
X8933367Y-13750293D01*
X8933367Y-13750293D02*
X8933367Y-13788388D01*
X8933367Y-13788388D02*
X8942891Y-13807436D01*
X8942891Y-13807436D02*
X8952415Y-13816960D01*
X8952415Y-13816960D02*
X8971463Y-13826484D01*
X8971463Y-13826484D02*
X9009558Y-13826484D01*
X9009558Y-13826484D02*
X9028605Y-13816960D01*
X9028605Y-13816960D02*
X9038129Y-13807436D01*
X9038129Y-13807436D02*
X9047653Y-13788388D01*
X9047653Y-13788388D02*
X9047653Y-13750293D01*
X9047653Y-13750293D02*
X9038129Y-13731246D01*
X9038129Y-13731246D02*
X9028605Y-13721722D01*
X9028605Y-13721722D02*
X9009558Y-13712198D01*
X9171463Y-13626484D02*
X9190510Y-13626484D01*
X9190510Y-13626484D02*
X9209558Y-13636008D01*
X9209558Y-13636008D02*
X9219082Y-13645531D01*
X9219082Y-13645531D02*
X9228605Y-13664579D01*
X9228605Y-13664579D02*
X9238129Y-13702674D01*
X9238129Y-13702674D02*
X9238129Y-13750293D01*
X9238129Y-13750293D02*
X9228605Y-13788388D01*
X9228605Y-13788388D02*
X9219082Y-13807436D01*
X9219082Y-13807436D02*
X9209558Y-13816960D01*
X9209558Y-13816960D02*
X9190510Y-13826484D01*
X9190510Y-13826484D02*
X9171463Y-13826484D01*
X9171463Y-13826484D02*
X9152415Y-13816960D01*
X9152415Y-13816960D02*
X9142891Y-13807436D01*
X9142891Y-13807436D02*
X9133367Y-13788388D01*
X9133367Y-13788388D02*
X9123844Y-13750293D01*
X9123844Y-13750293D02*
X9123844Y-13702674D01*
X9123844Y-13702674D02*
X9133367Y-13664579D01*
X9133367Y-13664579D02*
X9142891Y-13645531D01*
X9142891Y-13645531D02*
X9152415Y-13636008D01*
X9152415Y-13636008D02*
X9171463Y-13626484D01*
X9361939Y-13626484D02*
X9380986Y-13626484D01*
X9380986Y-13626484D02*
X9400034Y-13636008D01*
X9400034Y-13636008D02*
X9409558Y-13645531D01*
X9409558Y-13645531D02*
X9419082Y-13664579D01*
X9419082Y-13664579D02*
X9428605Y-13702674D01*
X9428605Y-13702674D02*
X9428605Y-13750293D01*
X9428605Y-13750293D02*
X9419082Y-13788388D01*
X9419082Y-13788388D02*
X9409558Y-13807436D01*
X9409558Y-13807436D02*
X9400034Y-13816960D01*
X9400034Y-13816960D02*
X9380986Y-13826484D01*
X9380986Y-13826484D02*
X9361939Y-13826484D01*
X9361939Y-13826484D02*
X9342891Y-13816960D01*
X9342891Y-13816960D02*
X9333367Y-13807436D01*
X9333367Y-13807436D02*
X9323844Y-13788388D01*
X9323844Y-13788388D02*
X9314320Y-13750293D01*
X9314320Y-13750293D02*
X9314320Y-13702674D01*
X9314320Y-13702674D02*
X9323844Y-13664579D01*
X9323844Y-13664579D02*
X9333367Y-13645531D01*
X9333367Y-13645531D02*
X9342891Y-13636008D01*
X9342891Y-13636008D02*
X9361939Y-13626484D01*
X9514320Y-13826484D02*
X9514320Y-13693150D01*
X9514320Y-13712198D02*
X9523844Y-13702674D01*
X9523844Y-13702674D02*
X9542891Y-13693150D01*
X9542891Y-13693150D02*
X9571463Y-13693150D01*
X9571463Y-13693150D02*
X9590510Y-13702674D01*
X9590510Y-13702674D02*
X9600034Y-13721722D01*
X9600034Y-13721722D02*
X9600034Y-13826484D01*
X9600034Y-13721722D02*
X9609558Y-13702674D01*
X9609558Y-13702674D02*
X9628605Y-13693150D01*
X9628605Y-13693150D02*
X9657177Y-13693150D01*
X9657177Y-13693150D02*
X9676225Y-13702674D01*
X9676225Y-13702674D02*
X9685748Y-13721722D01*
X9685748Y-13721722D02*
X9685748Y-13826484D01*
X9780986Y-13826484D02*
X9780986Y-13693150D01*
X9780986Y-13712198D02*
X9790510Y-13702674D01*
X9790510Y-13702674D02*
X9809558Y-13693150D01*
X9809558Y-13693150D02*
X9838129Y-13693150D01*
X9838129Y-13693150D02*
X9857177Y-13702674D01*
X9857177Y-13702674D02*
X9866701Y-13721722D01*
X9866701Y-13721722D02*
X9866701Y-13826484D01*
X9866701Y-13721722D02*
X9876225Y-13702674D01*
X9876225Y-13702674D02*
X9895272Y-13693150D01*
X9895272Y-13693150D02*
X9923844Y-13693150D01*
X9923844Y-13693150D02*
X9942891Y-13702674D01*
X9942891Y-13702674D02*
X9952415Y-13721722D01*
X9952415Y-13721722D02*
X9952415Y-13826484D01*
X10342891Y-13616960D02*
X10171463Y-13874103D01*
X10600034Y-13626484D02*
X10619082Y-13626484D01*
X10619082Y-13626484D02*
X10638129Y-13636008D01*
X10638129Y-13636008D02*
X10647653Y-13645531D01*
X10647653Y-13645531D02*
X10657177Y-13664579D01*
X10657177Y-13664579D02*
X10666701Y-13702674D01*
X10666701Y-13702674D02*
X10666701Y-13750293D01*
X10666701Y-13750293D02*
X10657177Y-13788388D01*
X10657177Y-13788388D02*
X10647653Y-13807436D01*
X10647653Y-13807436D02*
X10638129Y-13816960D01*
X10638129Y-13816960D02*
X10619082Y-13826484D01*
X10619082Y-13826484D02*
X10600034Y-13826484D01*
X10600034Y-13826484D02*
X10580987Y-13816960D01*
X10580987Y-13816960D02*
X10571463Y-13807436D01*
X10571463Y-13807436D02*
X10561939Y-13788388D01*
X10561939Y-13788388D02*
X10552415Y-13750293D01*
X10552415Y-13750293D02*
X10552415Y-13702674D01*
X10552415Y-13702674D02*
X10561939Y-13664579D01*
X10561939Y-13664579D02*
X10571463Y-13645531D01*
X10571463Y-13645531D02*
X10580987Y-13636008D01*
X10580987Y-13636008D02*
X10600034Y-13626484D01*
X10752415Y-13807436D02*
X10761939Y-13816960D01*
X10761939Y-13816960D02*
X10752415Y-13826484D01*
X10752415Y-13826484D02*
X10742891Y-13816960D01*
X10742891Y-13816960D02*
X10752415Y-13807436D01*
X10752415Y-13807436D02*
X10752415Y-13826484D01*
X10885748Y-13626484D02*
X10904796Y-13626484D01*
X10904796Y-13626484D02*
X10923844Y-13636008D01*
X10923844Y-13636008D02*
X10933368Y-13645531D01*
X10933368Y-13645531D02*
X10942891Y-13664579D01*
X10942891Y-13664579D02*
X10952415Y-13702674D01*
X10952415Y-13702674D02*
X10952415Y-13750293D01*
X10952415Y-13750293D02*
X10942891Y-13788388D01*
X10942891Y-13788388D02*
X10933368Y-13807436D01*
X10933368Y-13807436D02*
X10923844Y-13816960D01*
X10923844Y-13816960D02*
X10904796Y-13826484D01*
X10904796Y-13826484D02*
X10885748Y-13826484D01*
X10885748Y-13826484D02*
X10866701Y-13816960D01*
X10866701Y-13816960D02*
X10857177Y-13807436D01*
X10857177Y-13807436D02*
X10847653Y-13788388D01*
X10847653Y-13788388D02*
X10838129Y-13750293D01*
X10838129Y-13750293D02*
X10838129Y-13702674D01*
X10838129Y-13702674D02*
X10847653Y-13664579D01*
X10847653Y-13664579D02*
X10857177Y-13645531D01*
X10857177Y-13645531D02*
X10866701Y-13636008D01*
X10866701Y-13636008D02*
X10885748Y-13626484D01*
X11019082Y-13626484D02*
X11142891Y-13626484D01*
X11142891Y-13626484D02*
X11076225Y-13702674D01*
X11076225Y-13702674D02*
X11104796Y-13702674D01*
X11104796Y-13702674D02*
X11123844Y-13712198D01*
X11123844Y-13712198D02*
X11133368Y-13721722D01*
X11133368Y-13721722D02*
X11142891Y-13740769D01*
X11142891Y-13740769D02*
X11142891Y-13788388D01*
X11142891Y-13788388D02*
X11133368Y-13807436D01*
X11133368Y-13807436D02*
X11123844Y-13816960D01*
X11123844Y-13816960D02*
X11104796Y-13826484D01*
X11104796Y-13826484D02*
X11047653Y-13826484D01*
X11047653Y-13826484D02*
X11028606Y-13816960D01*
X11028606Y-13816960D02*
X11019082Y-13807436D01*
X11333367Y-13826484D02*
X11219082Y-13826484D01*
X11276225Y-13826484D02*
X11276225Y-13626484D01*
X11276225Y-13626484D02*
X11257177Y-13655055D01*
X11257177Y-13655055D02*
X11238129Y-13674103D01*
X11238129Y-13674103D02*
X11219082Y-13683627D01*
X11514320Y-13626484D02*
X11419082Y-13626484D01*
X11419082Y-13626484D02*
X11409558Y-13721722D01*
X11409558Y-13721722D02*
X11419082Y-13712198D01*
X11419082Y-13712198D02*
X11438129Y-13702674D01*
X11438129Y-13702674D02*
X11485748Y-13702674D01*
X11485748Y-13702674D02*
X11504796Y-13712198D01*
X11504796Y-13712198D02*
X11514320Y-13721722D01*
X11514320Y-13721722D02*
X11523844Y-13740769D01*
X11523844Y-13740769D02*
X11523844Y-13788388D01*
X11523844Y-13788388D02*
X11514320Y-13807436D01*
X11514320Y-13807436D02*
X11504796Y-13816960D01*
X11504796Y-13816960D02*
X11485748Y-13826484D01*
X11485748Y-13826484D02*
X11438129Y-13826484D01*
X11438129Y-13826484D02*
X11419082Y-13816960D01*
X11419082Y-13816960D02*
X11409558Y-13807436D01*
X11600034Y-13626484D02*
X11600034Y-13664579D01*
X11676225Y-13626484D02*
X11676225Y-13664579D01*
X11971463Y-13902674D02*
X11961939Y-13893150D01*
X11961939Y-13893150D02*
X11942891Y-13864579D01*
X11942891Y-13864579D02*
X11933368Y-13845531D01*
X11933368Y-13845531D02*
X11923844Y-13816960D01*
X11923844Y-13816960D02*
X11914320Y-13769341D01*
X11914320Y-13769341D02*
X11914320Y-13731246D01*
X11914320Y-13731246D02*
X11923844Y-13683627D01*
X11923844Y-13683627D02*
X11933368Y-13655055D01*
X11933368Y-13655055D02*
X11942891Y-13636008D01*
X11942891Y-13636008D02*
X11961939Y-13607436D01*
X11961939Y-13607436D02*
X11971463Y-13597912D01*
X12038129Y-13645531D02*
X12047653Y-13636008D01*
X12047653Y-13636008D02*
X12066701Y-13626484D01*
X12066701Y-13626484D02*
X12114320Y-13626484D01*
X12114320Y-13626484D02*
X12133368Y-13636008D01*
X12133368Y-13636008D02*
X12142891Y-13645531D01*
X12142891Y-13645531D02*
X12152415Y-13664579D01*
X12152415Y-13664579D02*
X12152415Y-13683627D01*
X12152415Y-13683627D02*
X12142891Y-13712198D01*
X12142891Y-13712198D02*
X12028606Y-13826484D01*
X12028606Y-13826484D02*
X12152415Y-13826484D01*
X12390510Y-13826484D02*
X12390510Y-13626484D01*
X12476225Y-13826484D02*
X12476225Y-13721722D01*
X12476225Y-13721722D02*
X12466701Y-13702674D01*
X12466701Y-13702674D02*
X12447653Y-13693150D01*
X12447653Y-13693150D02*
X12419082Y-13693150D01*
X12419082Y-13693150D02*
X12400034Y-13702674D01*
X12400034Y-13702674D02*
X12390510Y-13712198D01*
X12600034Y-13826484D02*
X12580987Y-13816960D01*
X12580987Y-13816960D02*
X12571463Y-13807436D01*
X12571463Y-13807436D02*
X12561939Y-13788388D01*
X12561939Y-13788388D02*
X12561939Y-13731246D01*
X12561939Y-13731246D02*
X12571463Y-13712198D01*
X12571463Y-13712198D02*
X12580987Y-13702674D01*
X12580987Y-13702674D02*
X12600034Y-13693150D01*
X12600034Y-13693150D02*
X12628606Y-13693150D01*
X12628606Y-13693150D02*
X12647653Y-13702674D01*
X12647653Y-13702674D02*
X12657177Y-13712198D01*
X12657177Y-13712198D02*
X12666701Y-13731246D01*
X12666701Y-13731246D02*
X12666701Y-13788388D01*
X12666701Y-13788388D02*
X12657177Y-13807436D01*
X12657177Y-13807436D02*
X12647653Y-13816960D01*
X12647653Y-13816960D02*
X12628606Y-13826484D01*
X12628606Y-13826484D02*
X12600034Y-13826484D01*
X12780987Y-13826484D02*
X12761939Y-13816960D01*
X12761939Y-13816960D02*
X12752415Y-13797912D01*
X12752415Y-13797912D02*
X12752415Y-13626484D01*
X12933368Y-13816960D02*
X12914320Y-13826484D01*
X12914320Y-13826484D02*
X12876225Y-13826484D01*
X12876225Y-13826484D02*
X12857177Y-13816960D01*
X12857177Y-13816960D02*
X12847653Y-13797912D01*
X12847653Y-13797912D02*
X12847653Y-13721722D01*
X12847653Y-13721722D02*
X12857177Y-13702674D01*
X12857177Y-13702674D02*
X12876225Y-13693150D01*
X12876225Y-13693150D02*
X12914320Y-13693150D01*
X12914320Y-13693150D02*
X12933368Y-13702674D01*
X12933368Y-13702674D02*
X12942891Y-13721722D01*
X12942891Y-13721722D02*
X12942891Y-13740769D01*
X12942891Y-13740769D02*
X12847653Y-13759817D01*
X13019082Y-13816960D02*
X13038130Y-13826484D01*
X13038130Y-13826484D02*
X13076225Y-13826484D01*
X13076225Y-13826484D02*
X13095272Y-13816960D01*
X13095272Y-13816960D02*
X13104796Y-13797912D01*
X13104796Y-13797912D02*
X13104796Y-13788388D01*
X13104796Y-13788388D02*
X13095272Y-13769341D01*
X13095272Y-13769341D02*
X13076225Y-13759817D01*
X13076225Y-13759817D02*
X13047653Y-13759817D01*
X13047653Y-13759817D02*
X13028606Y-13750293D01*
X13028606Y-13750293D02*
X13019082Y-13731246D01*
X13019082Y-13731246D02*
X13019082Y-13721722D01*
X13019082Y-13721722D02*
X13028606Y-13702674D01*
X13028606Y-13702674D02*
X13047653Y-13693150D01*
X13047653Y-13693150D02*
X13076225Y-13693150D01*
X13076225Y-13693150D02*
X13095272Y-13702674D01*
X13171463Y-13902674D02*
X13180987Y-13893150D01*
X13180987Y-13893150D02*
X13200034Y-13864579D01*
X13200034Y-13864579D02*
X13209558Y-13845531D01*
X13209558Y-13845531D02*
X13219082Y-13816960D01*
X13219082Y-13816960D02*
X13228606Y-13769341D01*
X13228606Y-13769341D02*
X13228606Y-13731246D01*
X13228606Y-13731246D02*
X13219082Y-13683627D01*
X13219082Y-13683627D02*
X13209558Y-13655055D01*
X13209558Y-13655055D02*
X13200034Y-13636008D01*
X13200034Y-13636008D02*
X13180987Y-13607436D01*
X13180987Y-13607436D02*
X13171463Y-13597912D01*
D13*
X8396400Y-13999000D02*
G75*
G03*
X8396400Y-13999000I-47500J0D01*
G01*
D11*
X8695272Y-13890484D02*
X8714320Y-13890484D01*
X8714320Y-13890484D02*
X8733367Y-13900008D01*
X8733367Y-13900008D02*
X8742891Y-13909531D01*
X8742891Y-13909531D02*
X8752415Y-13928579D01*
X8752415Y-13928579D02*
X8761939Y-13966674D01*
X8761939Y-13966674D02*
X8761939Y-14014293D01*
X8761939Y-14014293D02*
X8752415Y-14052388D01*
X8752415Y-14052388D02*
X8742891Y-14071436D01*
X8742891Y-14071436D02*
X8733367Y-14080960D01*
X8733367Y-14080960D02*
X8714320Y-14090484D01*
X8714320Y-14090484D02*
X8695272Y-14090484D01*
X8695272Y-14090484D02*
X8676224Y-14080960D01*
X8676224Y-14080960D02*
X8666701Y-14071436D01*
X8666701Y-14071436D02*
X8657177Y-14052388D01*
X8657177Y-14052388D02*
X8647653Y-14014293D01*
X8647653Y-14014293D02*
X8647653Y-13966674D01*
X8647653Y-13966674D02*
X8657177Y-13928579D01*
X8657177Y-13928579D02*
X8666701Y-13909531D01*
X8666701Y-13909531D02*
X8676224Y-13900008D01*
X8676224Y-13900008D02*
X8695272Y-13890484D01*
X8847653Y-14071436D02*
X8857177Y-14080960D01*
X8857177Y-14080960D02*
X8847653Y-14090484D01*
X8847653Y-14090484D02*
X8838129Y-14080960D01*
X8838129Y-14080960D02*
X8847653Y-14071436D01*
X8847653Y-14071436D02*
X8847653Y-14090484D01*
X8952415Y-14090484D02*
X8990510Y-14090484D01*
X8990510Y-14090484D02*
X9009558Y-14080960D01*
X9009558Y-14080960D02*
X9019082Y-14071436D01*
X9019082Y-14071436D02*
X9038129Y-14042865D01*
X9038129Y-14042865D02*
X9047653Y-14004769D01*
X9047653Y-14004769D02*
X9047653Y-13928579D01*
X9047653Y-13928579D02*
X9038129Y-13909531D01*
X9038129Y-13909531D02*
X9028605Y-13900008D01*
X9028605Y-13900008D02*
X9009558Y-13890484D01*
X9009558Y-13890484D02*
X8971463Y-13890484D01*
X8971463Y-13890484D02*
X8952415Y-13900008D01*
X8952415Y-13900008D02*
X8942891Y-13909531D01*
X8942891Y-13909531D02*
X8933367Y-13928579D01*
X8933367Y-13928579D02*
X8933367Y-13976198D01*
X8933367Y-13976198D02*
X8942891Y-13995246D01*
X8942891Y-13995246D02*
X8952415Y-14004769D01*
X8952415Y-14004769D02*
X8971463Y-14014293D01*
X8971463Y-14014293D02*
X9009558Y-14014293D01*
X9009558Y-14014293D02*
X9028605Y-14004769D01*
X9028605Y-14004769D02*
X9038129Y-13995246D01*
X9038129Y-13995246D02*
X9047653Y-13976198D01*
X9228605Y-13890484D02*
X9133367Y-13890484D01*
X9133367Y-13890484D02*
X9123844Y-13985722D01*
X9123844Y-13985722D02*
X9133367Y-13976198D01*
X9133367Y-13976198D02*
X9152415Y-13966674D01*
X9152415Y-13966674D02*
X9200034Y-13966674D01*
X9200034Y-13966674D02*
X9219082Y-13976198D01*
X9219082Y-13976198D02*
X9228605Y-13985722D01*
X9228605Y-13985722D02*
X9238129Y-14004769D01*
X9238129Y-14004769D02*
X9238129Y-14052388D01*
X9238129Y-14052388D02*
X9228605Y-14071436D01*
X9228605Y-14071436D02*
X9219082Y-14080960D01*
X9219082Y-14080960D02*
X9200034Y-14090484D01*
X9200034Y-14090484D02*
X9152415Y-14090484D01*
X9152415Y-14090484D02*
X9133367Y-14080960D01*
X9133367Y-14080960D02*
X9123844Y-14071436D01*
X9361939Y-13890484D02*
X9380986Y-13890484D01*
X9380986Y-13890484D02*
X9400034Y-13900008D01*
X9400034Y-13900008D02*
X9409558Y-13909531D01*
X9409558Y-13909531D02*
X9419082Y-13928579D01*
X9419082Y-13928579D02*
X9428605Y-13966674D01*
X9428605Y-13966674D02*
X9428605Y-14014293D01*
X9428605Y-14014293D02*
X9419082Y-14052388D01*
X9419082Y-14052388D02*
X9409558Y-14071436D01*
X9409558Y-14071436D02*
X9400034Y-14080960D01*
X9400034Y-14080960D02*
X9380986Y-14090484D01*
X9380986Y-14090484D02*
X9361939Y-14090484D01*
X9361939Y-14090484D02*
X9342891Y-14080960D01*
X9342891Y-14080960D02*
X9333367Y-14071436D01*
X9333367Y-14071436D02*
X9323844Y-14052388D01*
X9323844Y-14052388D02*
X9314320Y-14014293D01*
X9314320Y-14014293D02*
X9314320Y-13966674D01*
X9314320Y-13966674D02*
X9323844Y-13928579D01*
X9323844Y-13928579D02*
X9333367Y-13909531D01*
X9333367Y-13909531D02*
X9342891Y-13900008D01*
X9342891Y-13900008D02*
X9361939Y-13890484D01*
X9514320Y-14090484D02*
X9514320Y-13957150D01*
X9514320Y-13976198D02*
X9523844Y-13966674D01*
X9523844Y-13966674D02*
X9542891Y-13957150D01*
X9542891Y-13957150D02*
X9571463Y-13957150D01*
X9571463Y-13957150D02*
X9590510Y-13966674D01*
X9590510Y-13966674D02*
X9600034Y-13985722D01*
X9600034Y-13985722D02*
X9600034Y-14090484D01*
X9600034Y-13985722D02*
X9609558Y-13966674D01*
X9609558Y-13966674D02*
X9628605Y-13957150D01*
X9628605Y-13957150D02*
X9657177Y-13957150D01*
X9657177Y-13957150D02*
X9676225Y-13966674D01*
X9676225Y-13966674D02*
X9685748Y-13985722D01*
X9685748Y-13985722D02*
X9685748Y-14090484D01*
X9780986Y-14090484D02*
X9780986Y-13957150D01*
X9780986Y-13976198D02*
X9790510Y-13966674D01*
X9790510Y-13966674D02*
X9809558Y-13957150D01*
X9809558Y-13957150D02*
X9838129Y-13957150D01*
X9838129Y-13957150D02*
X9857177Y-13966674D01*
X9857177Y-13966674D02*
X9866701Y-13985722D01*
X9866701Y-13985722D02*
X9866701Y-14090484D01*
X9866701Y-13985722D02*
X9876225Y-13966674D01*
X9876225Y-13966674D02*
X9895272Y-13957150D01*
X9895272Y-13957150D02*
X9923844Y-13957150D01*
X9923844Y-13957150D02*
X9942891Y-13966674D01*
X9942891Y-13966674D02*
X9952415Y-13985722D01*
X9952415Y-13985722D02*
X9952415Y-14090484D01*
X10342891Y-13880960D02*
X10171463Y-14138103D01*
X10600034Y-13890484D02*
X10619082Y-13890484D01*
X10619082Y-13890484D02*
X10638129Y-13900008D01*
X10638129Y-13900008D02*
X10647653Y-13909531D01*
X10647653Y-13909531D02*
X10657177Y-13928579D01*
X10657177Y-13928579D02*
X10666701Y-13966674D01*
X10666701Y-13966674D02*
X10666701Y-14014293D01*
X10666701Y-14014293D02*
X10657177Y-14052388D01*
X10657177Y-14052388D02*
X10647653Y-14071436D01*
X10647653Y-14071436D02*
X10638129Y-14080960D01*
X10638129Y-14080960D02*
X10619082Y-14090484D01*
X10619082Y-14090484D02*
X10600034Y-14090484D01*
X10600034Y-14090484D02*
X10580987Y-14080960D01*
X10580987Y-14080960D02*
X10571463Y-14071436D01*
X10571463Y-14071436D02*
X10561939Y-14052388D01*
X10561939Y-14052388D02*
X10552415Y-14014293D01*
X10552415Y-14014293D02*
X10552415Y-13966674D01*
X10552415Y-13966674D02*
X10561939Y-13928579D01*
X10561939Y-13928579D02*
X10571463Y-13909531D01*
X10571463Y-13909531D02*
X10580987Y-13900008D01*
X10580987Y-13900008D02*
X10600034Y-13890484D01*
X10752415Y-14071436D02*
X10761939Y-14080960D01*
X10761939Y-14080960D02*
X10752415Y-14090484D01*
X10752415Y-14090484D02*
X10742891Y-14080960D01*
X10742891Y-14080960D02*
X10752415Y-14071436D01*
X10752415Y-14071436D02*
X10752415Y-14090484D01*
X10885748Y-13890484D02*
X10904796Y-13890484D01*
X10904796Y-13890484D02*
X10923844Y-13900008D01*
X10923844Y-13900008D02*
X10933368Y-13909531D01*
X10933368Y-13909531D02*
X10942891Y-13928579D01*
X10942891Y-13928579D02*
X10952415Y-13966674D01*
X10952415Y-13966674D02*
X10952415Y-14014293D01*
X10952415Y-14014293D02*
X10942891Y-14052388D01*
X10942891Y-14052388D02*
X10933368Y-14071436D01*
X10933368Y-14071436D02*
X10923844Y-14080960D01*
X10923844Y-14080960D02*
X10904796Y-14090484D01*
X10904796Y-14090484D02*
X10885748Y-14090484D01*
X10885748Y-14090484D02*
X10866701Y-14080960D01*
X10866701Y-14080960D02*
X10857177Y-14071436D01*
X10857177Y-14071436D02*
X10847653Y-14052388D01*
X10847653Y-14052388D02*
X10838129Y-14014293D01*
X10838129Y-14014293D02*
X10838129Y-13966674D01*
X10838129Y-13966674D02*
X10847653Y-13928579D01*
X10847653Y-13928579D02*
X10857177Y-13909531D01*
X10857177Y-13909531D02*
X10866701Y-13900008D01*
X10866701Y-13900008D02*
X10885748Y-13890484D01*
X11019082Y-13890484D02*
X11142891Y-13890484D01*
X11142891Y-13890484D02*
X11076225Y-13966674D01*
X11076225Y-13966674D02*
X11104796Y-13966674D01*
X11104796Y-13966674D02*
X11123844Y-13976198D01*
X11123844Y-13976198D02*
X11133368Y-13985722D01*
X11133368Y-13985722D02*
X11142891Y-14004769D01*
X11142891Y-14004769D02*
X11142891Y-14052388D01*
X11142891Y-14052388D02*
X11133368Y-14071436D01*
X11133368Y-14071436D02*
X11123844Y-14080960D01*
X11123844Y-14080960D02*
X11104796Y-14090484D01*
X11104796Y-14090484D02*
X11047653Y-14090484D01*
X11047653Y-14090484D02*
X11028606Y-14080960D01*
X11028606Y-14080960D02*
X11019082Y-14071436D01*
X11209558Y-13890484D02*
X11342891Y-13890484D01*
X11342891Y-13890484D02*
X11257177Y-14090484D01*
X11504796Y-13957150D02*
X11504796Y-14090484D01*
X11457177Y-13880960D02*
X11409558Y-14023817D01*
X11409558Y-14023817D02*
X11533367Y-14023817D01*
X11600034Y-13890484D02*
X11600034Y-13928579D01*
X11676225Y-13890484D02*
X11676225Y-13928579D01*
X11971463Y-14166674D02*
X11961939Y-14157150D01*
X11961939Y-14157150D02*
X11942891Y-14128579D01*
X11942891Y-14128579D02*
X11933368Y-14109531D01*
X11933368Y-14109531D02*
X11923844Y-14080960D01*
X11923844Y-14080960D02*
X11914320Y-14033341D01*
X11914320Y-14033341D02*
X11914320Y-13995246D01*
X11914320Y-13995246D02*
X11923844Y-13947627D01*
X11923844Y-13947627D02*
X11933368Y-13919055D01*
X11933368Y-13919055D02*
X11942891Y-13900008D01*
X11942891Y-13900008D02*
X11961939Y-13871436D01*
X11961939Y-13871436D02*
X11971463Y-13861912D01*
X12076225Y-13976198D02*
X12057177Y-13966674D01*
X12057177Y-13966674D02*
X12047653Y-13957150D01*
X12047653Y-13957150D02*
X12038129Y-13938103D01*
X12038129Y-13938103D02*
X12038129Y-13928579D01*
X12038129Y-13928579D02*
X12047653Y-13909531D01*
X12047653Y-13909531D02*
X12057177Y-13900008D01*
X12057177Y-13900008D02*
X12076225Y-13890484D01*
X12076225Y-13890484D02*
X12114320Y-13890484D01*
X12114320Y-13890484D02*
X12133368Y-13900008D01*
X12133368Y-13900008D02*
X12142891Y-13909531D01*
X12142891Y-13909531D02*
X12152415Y-13928579D01*
X12152415Y-13928579D02*
X12152415Y-13938103D01*
X12152415Y-13938103D02*
X12142891Y-13957150D01*
X12142891Y-13957150D02*
X12133368Y-13966674D01*
X12133368Y-13966674D02*
X12114320Y-13976198D01*
X12114320Y-13976198D02*
X12076225Y-13976198D01*
X12076225Y-13976198D02*
X12057177Y-13985722D01*
X12057177Y-13985722D02*
X12047653Y-13995246D01*
X12047653Y-13995246D02*
X12038129Y-14014293D01*
X12038129Y-14014293D02*
X12038129Y-14052388D01*
X12038129Y-14052388D02*
X12047653Y-14071436D01*
X12047653Y-14071436D02*
X12057177Y-14080960D01*
X12057177Y-14080960D02*
X12076225Y-14090484D01*
X12076225Y-14090484D02*
X12114320Y-14090484D01*
X12114320Y-14090484D02*
X12133368Y-14080960D01*
X12133368Y-14080960D02*
X12142891Y-14071436D01*
X12142891Y-14071436D02*
X12152415Y-14052388D01*
X12152415Y-14052388D02*
X12152415Y-14014293D01*
X12152415Y-14014293D02*
X12142891Y-13995246D01*
X12142891Y-13995246D02*
X12133368Y-13985722D01*
X12133368Y-13985722D02*
X12114320Y-13976198D01*
X12390510Y-14090484D02*
X12390510Y-13890484D01*
X12476225Y-14090484D02*
X12476225Y-13985722D01*
X12476225Y-13985722D02*
X12466701Y-13966674D01*
X12466701Y-13966674D02*
X12447653Y-13957150D01*
X12447653Y-13957150D02*
X12419082Y-13957150D01*
X12419082Y-13957150D02*
X12400034Y-13966674D01*
X12400034Y-13966674D02*
X12390510Y-13976198D01*
X12600034Y-14090484D02*
X12580987Y-14080960D01*
X12580987Y-14080960D02*
X12571463Y-14071436D01*
X12571463Y-14071436D02*
X12561939Y-14052388D01*
X12561939Y-14052388D02*
X12561939Y-13995246D01*
X12561939Y-13995246D02*
X12571463Y-13976198D01*
X12571463Y-13976198D02*
X12580987Y-13966674D01*
X12580987Y-13966674D02*
X12600034Y-13957150D01*
X12600034Y-13957150D02*
X12628606Y-13957150D01*
X12628606Y-13957150D02*
X12647653Y-13966674D01*
X12647653Y-13966674D02*
X12657177Y-13976198D01*
X12657177Y-13976198D02*
X12666701Y-13995246D01*
X12666701Y-13995246D02*
X12666701Y-14052388D01*
X12666701Y-14052388D02*
X12657177Y-14071436D01*
X12657177Y-14071436D02*
X12647653Y-14080960D01*
X12647653Y-14080960D02*
X12628606Y-14090484D01*
X12628606Y-14090484D02*
X12600034Y-14090484D01*
X12780987Y-14090484D02*
X12761939Y-14080960D01*
X12761939Y-14080960D02*
X12752415Y-14061912D01*
X12752415Y-14061912D02*
X12752415Y-13890484D01*
X12933368Y-14080960D02*
X12914320Y-14090484D01*
X12914320Y-14090484D02*
X12876225Y-14090484D01*
X12876225Y-14090484D02*
X12857177Y-14080960D01*
X12857177Y-14080960D02*
X12847653Y-14061912D01*
X12847653Y-14061912D02*
X12847653Y-13985722D01*
X12847653Y-13985722D02*
X12857177Y-13966674D01*
X12857177Y-13966674D02*
X12876225Y-13957150D01*
X12876225Y-13957150D02*
X12914320Y-13957150D01*
X12914320Y-13957150D02*
X12933368Y-13966674D01*
X12933368Y-13966674D02*
X12942891Y-13985722D01*
X12942891Y-13985722D02*
X12942891Y-14004769D01*
X12942891Y-14004769D02*
X12847653Y-14023817D01*
X13019082Y-14080960D02*
X13038130Y-14090484D01*
X13038130Y-14090484D02*
X13076225Y-14090484D01*
X13076225Y-14090484D02*
X13095272Y-14080960D01*
X13095272Y-14080960D02*
X13104796Y-14061912D01*
X13104796Y-14061912D02*
X13104796Y-14052388D01*
X13104796Y-14052388D02*
X13095272Y-14033341D01*
X13095272Y-14033341D02*
X13076225Y-14023817D01*
X13076225Y-14023817D02*
X13047653Y-14023817D01*
X13047653Y-14023817D02*
X13028606Y-14014293D01*
X13028606Y-14014293D02*
X13019082Y-13995246D01*
X13019082Y-13995246D02*
X13019082Y-13985722D01*
X13019082Y-13985722D02*
X13028606Y-13966674D01*
X13028606Y-13966674D02*
X13047653Y-13957150D01*
X13047653Y-13957150D02*
X13076225Y-13957150D01*
X13076225Y-13957150D02*
X13095272Y-13966674D01*
X13171463Y-14166674D02*
X13180987Y-14157150D01*
X13180987Y-14157150D02*
X13200034Y-14128579D01*
X13200034Y-14128579D02*
X13209558Y-14109531D01*
X13209558Y-14109531D02*
X13219082Y-14080960D01*
X13219082Y-14080960D02*
X13228606Y-14033341D01*
X13228606Y-14033341D02*
X13228606Y-13995246D01*
X13228606Y-13995246D02*
X13219082Y-13947627D01*
X13219082Y-13947627D02*
X13209558Y-13919055D01*
X13209558Y-13919055D02*
X13200034Y-13900008D01*
X13200034Y-13900008D02*
X13180987Y-13871436D01*
X13180987Y-13871436D02*
X13171463Y-13861912D01*
D10*
X8346400Y-14213000D02*
X8346400Y-14313000D01*
X8296400Y-14263000D02*
X8396400Y-14263000D01*
D11*
X8761939Y-14354484D02*
X8647653Y-14354484D01*
X8704796Y-14354484D02*
X8704796Y-14154484D01*
X8704796Y-14154484D02*
X8685748Y-14183055D01*
X8685748Y-14183055D02*
X8666701Y-14202103D01*
X8666701Y-14202103D02*
X8647653Y-14211627D01*
X8847653Y-14335436D02*
X8857177Y-14344960D01*
X8857177Y-14344960D02*
X8847653Y-14354484D01*
X8847653Y-14354484D02*
X8838129Y-14344960D01*
X8838129Y-14344960D02*
X8847653Y-14335436D01*
X8847653Y-14335436D02*
X8847653Y-14354484D01*
X8980986Y-14154484D02*
X9000034Y-14154484D01*
X9000034Y-14154484D02*
X9019082Y-14164008D01*
X9019082Y-14164008D02*
X9028605Y-14173531D01*
X9028605Y-14173531D02*
X9038129Y-14192579D01*
X9038129Y-14192579D02*
X9047653Y-14230674D01*
X9047653Y-14230674D02*
X9047653Y-14278293D01*
X9047653Y-14278293D02*
X9038129Y-14316388D01*
X9038129Y-14316388D02*
X9028605Y-14335436D01*
X9028605Y-14335436D02*
X9019082Y-14344960D01*
X9019082Y-14344960D02*
X9000034Y-14354484D01*
X9000034Y-14354484D02*
X8980986Y-14354484D01*
X8980986Y-14354484D02*
X8961939Y-14344960D01*
X8961939Y-14344960D02*
X8952415Y-14335436D01*
X8952415Y-14335436D02*
X8942891Y-14316388D01*
X8942891Y-14316388D02*
X8933367Y-14278293D01*
X8933367Y-14278293D02*
X8933367Y-14230674D01*
X8933367Y-14230674D02*
X8942891Y-14192579D01*
X8942891Y-14192579D02*
X8952415Y-14173531D01*
X8952415Y-14173531D02*
X8961939Y-14164008D01*
X8961939Y-14164008D02*
X8980986Y-14154484D01*
X9171463Y-14154484D02*
X9190510Y-14154484D01*
X9190510Y-14154484D02*
X9209558Y-14164008D01*
X9209558Y-14164008D02*
X9219082Y-14173531D01*
X9219082Y-14173531D02*
X9228605Y-14192579D01*
X9228605Y-14192579D02*
X9238129Y-14230674D01*
X9238129Y-14230674D02*
X9238129Y-14278293D01*
X9238129Y-14278293D02*
X9228605Y-14316388D01*
X9228605Y-14316388D02*
X9219082Y-14335436D01*
X9219082Y-14335436D02*
X9209558Y-14344960D01*
X9209558Y-14344960D02*
X9190510Y-14354484D01*
X9190510Y-14354484D02*
X9171463Y-14354484D01*
X9171463Y-14354484D02*
X9152415Y-14344960D01*
X9152415Y-14344960D02*
X9142891Y-14335436D01*
X9142891Y-14335436D02*
X9133367Y-14316388D01*
X9133367Y-14316388D02*
X9123844Y-14278293D01*
X9123844Y-14278293D02*
X9123844Y-14230674D01*
X9123844Y-14230674D02*
X9133367Y-14192579D01*
X9133367Y-14192579D02*
X9142891Y-14173531D01*
X9142891Y-14173531D02*
X9152415Y-14164008D01*
X9152415Y-14164008D02*
X9171463Y-14154484D01*
X9361939Y-14154484D02*
X9380986Y-14154484D01*
X9380986Y-14154484D02*
X9400034Y-14164008D01*
X9400034Y-14164008D02*
X9409558Y-14173531D01*
X9409558Y-14173531D02*
X9419082Y-14192579D01*
X9419082Y-14192579D02*
X9428605Y-14230674D01*
X9428605Y-14230674D02*
X9428605Y-14278293D01*
X9428605Y-14278293D02*
X9419082Y-14316388D01*
X9419082Y-14316388D02*
X9409558Y-14335436D01*
X9409558Y-14335436D02*
X9400034Y-14344960D01*
X9400034Y-14344960D02*
X9380986Y-14354484D01*
X9380986Y-14354484D02*
X9361939Y-14354484D01*
X9361939Y-14354484D02*
X9342891Y-14344960D01*
X9342891Y-14344960D02*
X9333367Y-14335436D01*
X9333367Y-14335436D02*
X9323844Y-14316388D01*
X9323844Y-14316388D02*
X9314320Y-14278293D01*
X9314320Y-14278293D02*
X9314320Y-14230674D01*
X9314320Y-14230674D02*
X9323844Y-14192579D01*
X9323844Y-14192579D02*
X9333367Y-14173531D01*
X9333367Y-14173531D02*
X9342891Y-14164008D01*
X9342891Y-14164008D02*
X9361939Y-14154484D01*
X9514320Y-14354484D02*
X9514320Y-14221150D01*
X9514320Y-14240198D02*
X9523844Y-14230674D01*
X9523844Y-14230674D02*
X9542891Y-14221150D01*
X9542891Y-14221150D02*
X9571463Y-14221150D01*
X9571463Y-14221150D02*
X9590510Y-14230674D01*
X9590510Y-14230674D02*
X9600034Y-14249722D01*
X9600034Y-14249722D02*
X9600034Y-14354484D01*
X9600034Y-14249722D02*
X9609558Y-14230674D01*
X9609558Y-14230674D02*
X9628605Y-14221150D01*
X9628605Y-14221150D02*
X9657177Y-14221150D01*
X9657177Y-14221150D02*
X9676225Y-14230674D01*
X9676225Y-14230674D02*
X9685748Y-14249722D01*
X9685748Y-14249722D02*
X9685748Y-14354484D01*
X9780986Y-14354484D02*
X9780986Y-14221150D01*
X9780986Y-14240198D02*
X9790510Y-14230674D01*
X9790510Y-14230674D02*
X9809558Y-14221150D01*
X9809558Y-14221150D02*
X9838129Y-14221150D01*
X9838129Y-14221150D02*
X9857177Y-14230674D01*
X9857177Y-14230674D02*
X9866701Y-14249722D01*
X9866701Y-14249722D02*
X9866701Y-14354484D01*
X9866701Y-14249722D02*
X9876225Y-14230674D01*
X9876225Y-14230674D02*
X9895272Y-14221150D01*
X9895272Y-14221150D02*
X9923844Y-14221150D01*
X9923844Y-14221150D02*
X9942891Y-14230674D01*
X9942891Y-14230674D02*
X9952415Y-14249722D01*
X9952415Y-14249722D02*
X9952415Y-14354484D01*
X10342891Y-14144960D02*
X10171463Y-14402103D01*
X10600034Y-14154484D02*
X10619082Y-14154484D01*
X10619082Y-14154484D02*
X10638129Y-14164008D01*
X10638129Y-14164008D02*
X10647653Y-14173531D01*
X10647653Y-14173531D02*
X10657177Y-14192579D01*
X10657177Y-14192579D02*
X10666701Y-14230674D01*
X10666701Y-14230674D02*
X10666701Y-14278293D01*
X10666701Y-14278293D02*
X10657177Y-14316388D01*
X10657177Y-14316388D02*
X10647653Y-14335436D01*
X10647653Y-14335436D02*
X10638129Y-14344960D01*
X10638129Y-14344960D02*
X10619082Y-14354484D01*
X10619082Y-14354484D02*
X10600034Y-14354484D01*
X10600034Y-14354484D02*
X10580987Y-14344960D01*
X10580987Y-14344960D02*
X10571463Y-14335436D01*
X10571463Y-14335436D02*
X10561939Y-14316388D01*
X10561939Y-14316388D02*
X10552415Y-14278293D01*
X10552415Y-14278293D02*
X10552415Y-14230674D01*
X10552415Y-14230674D02*
X10561939Y-14192579D01*
X10561939Y-14192579D02*
X10571463Y-14173531D01*
X10571463Y-14173531D02*
X10580987Y-14164008D01*
X10580987Y-14164008D02*
X10600034Y-14154484D01*
X10752415Y-14335436D02*
X10761939Y-14344960D01*
X10761939Y-14344960D02*
X10752415Y-14354484D01*
X10752415Y-14354484D02*
X10742891Y-14344960D01*
X10742891Y-14344960D02*
X10752415Y-14335436D01*
X10752415Y-14335436D02*
X10752415Y-14354484D01*
X10885748Y-14154484D02*
X10904796Y-14154484D01*
X10904796Y-14154484D02*
X10923844Y-14164008D01*
X10923844Y-14164008D02*
X10933368Y-14173531D01*
X10933368Y-14173531D02*
X10942891Y-14192579D01*
X10942891Y-14192579D02*
X10952415Y-14230674D01*
X10952415Y-14230674D02*
X10952415Y-14278293D01*
X10952415Y-14278293D02*
X10942891Y-14316388D01*
X10942891Y-14316388D02*
X10933368Y-14335436D01*
X10933368Y-14335436D02*
X10923844Y-14344960D01*
X10923844Y-14344960D02*
X10904796Y-14354484D01*
X10904796Y-14354484D02*
X10885748Y-14354484D01*
X10885748Y-14354484D02*
X10866701Y-14344960D01*
X10866701Y-14344960D02*
X10857177Y-14335436D01*
X10857177Y-14335436D02*
X10847653Y-14316388D01*
X10847653Y-14316388D02*
X10838129Y-14278293D01*
X10838129Y-14278293D02*
X10838129Y-14230674D01*
X10838129Y-14230674D02*
X10847653Y-14192579D01*
X10847653Y-14192579D02*
X10857177Y-14173531D01*
X10857177Y-14173531D02*
X10866701Y-14164008D01*
X10866701Y-14164008D02*
X10885748Y-14154484D01*
X11019082Y-14154484D02*
X11142891Y-14154484D01*
X11142891Y-14154484D02*
X11076225Y-14230674D01*
X11076225Y-14230674D02*
X11104796Y-14230674D01*
X11104796Y-14230674D02*
X11123844Y-14240198D01*
X11123844Y-14240198D02*
X11133368Y-14249722D01*
X11133368Y-14249722D02*
X11142891Y-14268769D01*
X11142891Y-14268769D02*
X11142891Y-14316388D01*
X11142891Y-14316388D02*
X11133368Y-14335436D01*
X11133368Y-14335436D02*
X11123844Y-14344960D01*
X11123844Y-14344960D02*
X11104796Y-14354484D01*
X11104796Y-14354484D02*
X11047653Y-14354484D01*
X11047653Y-14354484D02*
X11028606Y-14344960D01*
X11028606Y-14344960D02*
X11019082Y-14335436D01*
X11238129Y-14354484D02*
X11276225Y-14354484D01*
X11276225Y-14354484D02*
X11295272Y-14344960D01*
X11295272Y-14344960D02*
X11304796Y-14335436D01*
X11304796Y-14335436D02*
X11323844Y-14306865D01*
X11323844Y-14306865D02*
X11333367Y-14268769D01*
X11333367Y-14268769D02*
X11333367Y-14192579D01*
X11333367Y-14192579D02*
X11323844Y-14173531D01*
X11323844Y-14173531D02*
X11314320Y-14164008D01*
X11314320Y-14164008D02*
X11295272Y-14154484D01*
X11295272Y-14154484D02*
X11257177Y-14154484D01*
X11257177Y-14154484D02*
X11238129Y-14164008D01*
X11238129Y-14164008D02*
X11228606Y-14173531D01*
X11228606Y-14173531D02*
X11219082Y-14192579D01*
X11219082Y-14192579D02*
X11219082Y-14240198D01*
X11219082Y-14240198D02*
X11228606Y-14259246D01*
X11228606Y-14259246D02*
X11238129Y-14268769D01*
X11238129Y-14268769D02*
X11257177Y-14278293D01*
X11257177Y-14278293D02*
X11295272Y-14278293D01*
X11295272Y-14278293D02*
X11314320Y-14268769D01*
X11314320Y-14268769D02*
X11323844Y-14259246D01*
X11323844Y-14259246D02*
X11333367Y-14240198D01*
X11504796Y-14221150D02*
X11504796Y-14354484D01*
X11457177Y-14144960D02*
X11409558Y-14287817D01*
X11409558Y-14287817D02*
X11533367Y-14287817D01*
X11600034Y-14154484D02*
X11600034Y-14192579D01*
X11676225Y-14154484D02*
X11676225Y-14192579D01*
X11971463Y-14430674D02*
X11961939Y-14421150D01*
X11961939Y-14421150D02*
X11942891Y-14392579D01*
X11942891Y-14392579D02*
X11933368Y-14373531D01*
X11933368Y-14373531D02*
X11923844Y-14344960D01*
X11923844Y-14344960D02*
X11914320Y-14297341D01*
X11914320Y-14297341D02*
X11914320Y-14259246D01*
X11914320Y-14259246D02*
X11923844Y-14211627D01*
X11923844Y-14211627D02*
X11933368Y-14183055D01*
X11933368Y-14183055D02*
X11942891Y-14164008D01*
X11942891Y-14164008D02*
X11961939Y-14135436D01*
X11961939Y-14135436D02*
X11971463Y-14125912D01*
X12152415Y-14354484D02*
X12038129Y-14354484D01*
X12095272Y-14354484D02*
X12095272Y-14154484D01*
X12095272Y-14154484D02*
X12076225Y-14183055D01*
X12076225Y-14183055D02*
X12057177Y-14202103D01*
X12057177Y-14202103D02*
X12038129Y-14211627D01*
X12266701Y-14240198D02*
X12247653Y-14230674D01*
X12247653Y-14230674D02*
X12238129Y-14221150D01*
X12238129Y-14221150D02*
X12228606Y-14202103D01*
X12228606Y-14202103D02*
X12228606Y-14192579D01*
X12228606Y-14192579D02*
X12238129Y-14173531D01*
X12238129Y-14173531D02*
X12247653Y-14164008D01*
X12247653Y-14164008D02*
X12266701Y-14154484D01*
X12266701Y-14154484D02*
X12304796Y-14154484D01*
X12304796Y-14154484D02*
X12323844Y-14164008D01*
X12323844Y-14164008D02*
X12333368Y-14173531D01*
X12333368Y-14173531D02*
X12342891Y-14192579D01*
X12342891Y-14192579D02*
X12342891Y-14202103D01*
X12342891Y-14202103D02*
X12333368Y-14221150D01*
X12333368Y-14221150D02*
X12323844Y-14230674D01*
X12323844Y-14230674D02*
X12304796Y-14240198D01*
X12304796Y-14240198D02*
X12266701Y-14240198D01*
X12266701Y-14240198D02*
X12247653Y-14249722D01*
X12247653Y-14249722D02*
X12238129Y-14259246D01*
X12238129Y-14259246D02*
X12228606Y-14278293D01*
X12228606Y-14278293D02*
X12228606Y-14316388D01*
X12228606Y-14316388D02*
X12238129Y-14335436D01*
X12238129Y-14335436D02*
X12247653Y-14344960D01*
X12247653Y-14344960D02*
X12266701Y-14354484D01*
X12266701Y-14354484D02*
X12304796Y-14354484D01*
X12304796Y-14354484D02*
X12323844Y-14344960D01*
X12323844Y-14344960D02*
X12333368Y-14335436D01*
X12333368Y-14335436D02*
X12342891Y-14316388D01*
X12342891Y-14316388D02*
X12342891Y-14278293D01*
X12342891Y-14278293D02*
X12333368Y-14259246D01*
X12333368Y-14259246D02*
X12323844Y-14249722D01*
X12323844Y-14249722D02*
X12304796Y-14240198D01*
X12580987Y-14354484D02*
X12580987Y-14154484D01*
X12666701Y-14354484D02*
X12666701Y-14249722D01*
X12666701Y-14249722D02*
X12657177Y-14230674D01*
X12657177Y-14230674D02*
X12638130Y-14221150D01*
X12638130Y-14221150D02*
X12609558Y-14221150D01*
X12609558Y-14221150D02*
X12590510Y-14230674D01*
X12590510Y-14230674D02*
X12580987Y-14240198D01*
X12790510Y-14354484D02*
X12771463Y-14344960D01*
X12771463Y-14344960D02*
X12761939Y-14335436D01*
X12761939Y-14335436D02*
X12752415Y-14316388D01*
X12752415Y-14316388D02*
X12752415Y-14259246D01*
X12752415Y-14259246D02*
X12761939Y-14240198D01*
X12761939Y-14240198D02*
X12771463Y-14230674D01*
X12771463Y-14230674D02*
X12790510Y-14221150D01*
X12790510Y-14221150D02*
X12819082Y-14221150D01*
X12819082Y-14221150D02*
X12838130Y-14230674D01*
X12838130Y-14230674D02*
X12847653Y-14240198D01*
X12847653Y-14240198D02*
X12857177Y-14259246D01*
X12857177Y-14259246D02*
X12857177Y-14316388D01*
X12857177Y-14316388D02*
X12847653Y-14335436D01*
X12847653Y-14335436D02*
X12838130Y-14344960D01*
X12838130Y-14344960D02*
X12819082Y-14354484D01*
X12819082Y-14354484D02*
X12790510Y-14354484D01*
X12971463Y-14354484D02*
X12952415Y-14344960D01*
X12952415Y-14344960D02*
X12942891Y-14325912D01*
X12942891Y-14325912D02*
X12942891Y-14154484D01*
X13123844Y-14344960D02*
X13104796Y-14354484D01*
X13104796Y-14354484D02*
X13066701Y-14354484D01*
X13066701Y-14354484D02*
X13047653Y-14344960D01*
X13047653Y-14344960D02*
X13038130Y-14325912D01*
X13038130Y-14325912D02*
X13038130Y-14249722D01*
X13038130Y-14249722D02*
X13047653Y-14230674D01*
X13047653Y-14230674D02*
X13066701Y-14221150D01*
X13066701Y-14221150D02*
X13104796Y-14221150D01*
X13104796Y-14221150D02*
X13123844Y-14230674D01*
X13123844Y-14230674D02*
X13133368Y-14249722D01*
X13133368Y-14249722D02*
X13133368Y-14268769D01*
X13133368Y-14268769D02*
X13038130Y-14287817D01*
X13209558Y-14344960D02*
X13228606Y-14354484D01*
X13228606Y-14354484D02*
X13266701Y-14354484D01*
X13266701Y-14354484D02*
X13285749Y-14344960D01*
X13285749Y-14344960D02*
X13295272Y-14325912D01*
X13295272Y-14325912D02*
X13295272Y-14316388D01*
X13295272Y-14316388D02*
X13285749Y-14297341D01*
X13285749Y-14297341D02*
X13266701Y-14287817D01*
X13266701Y-14287817D02*
X13238130Y-14287817D01*
X13238130Y-14287817D02*
X13219082Y-14278293D01*
X13219082Y-14278293D02*
X13209558Y-14259246D01*
X13209558Y-14259246D02*
X13209558Y-14249722D01*
X13209558Y-14249722D02*
X13219082Y-14230674D01*
X13219082Y-14230674D02*
X13238130Y-14221150D01*
X13238130Y-14221150D02*
X13266701Y-14221150D01*
X13266701Y-14221150D02*
X13285749Y-14230674D01*
X13533368Y-14278293D02*
X13685749Y-14278293D01*
X13609558Y-14354484D02*
X13609558Y-14202103D01*
X13914320Y-14154484D02*
X14038130Y-14154484D01*
X14038130Y-14154484D02*
X13971463Y-14230674D01*
X13971463Y-14230674D02*
X14000034Y-14230674D01*
X14000034Y-14230674D02*
X14019082Y-14240198D01*
X14019082Y-14240198D02*
X14028606Y-14249722D01*
X14028606Y-14249722D02*
X14038130Y-14268769D01*
X14038130Y-14268769D02*
X14038130Y-14316388D01*
X14038130Y-14316388D02*
X14028606Y-14335436D01*
X14028606Y-14335436D02*
X14019082Y-14344960D01*
X14019082Y-14344960D02*
X14000034Y-14354484D01*
X14000034Y-14354484D02*
X13942892Y-14354484D01*
X13942892Y-14354484D02*
X13923844Y-14344960D01*
X13923844Y-14344960D02*
X13914320Y-14335436D01*
X14266701Y-14344960D02*
X14285749Y-14354484D01*
X14285749Y-14354484D02*
X14323844Y-14354484D01*
X14323844Y-14354484D02*
X14342892Y-14344960D01*
X14342892Y-14344960D02*
X14352415Y-14325912D01*
X14352415Y-14325912D02*
X14352415Y-14316388D01*
X14352415Y-14316388D02*
X14342892Y-14297341D01*
X14342892Y-14297341D02*
X14323844Y-14287817D01*
X14323844Y-14287817D02*
X14295273Y-14287817D01*
X14295273Y-14287817D02*
X14276225Y-14278293D01*
X14276225Y-14278293D02*
X14266701Y-14259246D01*
X14266701Y-14259246D02*
X14266701Y-14249722D01*
X14266701Y-14249722D02*
X14276225Y-14230674D01*
X14276225Y-14230674D02*
X14295273Y-14221150D01*
X14295273Y-14221150D02*
X14323844Y-14221150D01*
X14323844Y-14221150D02*
X14342892Y-14230674D01*
X14466701Y-14354484D02*
X14447654Y-14344960D01*
X14447654Y-14344960D02*
X14438130Y-14325912D01*
X14438130Y-14325912D02*
X14438130Y-14154484D01*
X14571463Y-14354484D02*
X14552415Y-14344960D01*
X14552415Y-14344960D02*
X14542892Y-14335436D01*
X14542892Y-14335436D02*
X14533368Y-14316388D01*
X14533368Y-14316388D02*
X14533368Y-14259246D01*
X14533368Y-14259246D02*
X14542892Y-14240198D01*
X14542892Y-14240198D02*
X14552415Y-14230674D01*
X14552415Y-14230674D02*
X14571463Y-14221150D01*
X14571463Y-14221150D02*
X14600035Y-14221150D01*
X14600035Y-14221150D02*
X14619082Y-14230674D01*
X14619082Y-14230674D02*
X14628606Y-14240198D01*
X14628606Y-14240198D02*
X14638130Y-14259246D01*
X14638130Y-14259246D02*
X14638130Y-14316388D01*
X14638130Y-14316388D02*
X14628606Y-14335436D01*
X14628606Y-14335436D02*
X14619082Y-14344960D01*
X14619082Y-14344960D02*
X14600035Y-14354484D01*
X14600035Y-14354484D02*
X14571463Y-14354484D01*
X14695273Y-14221150D02*
X14771463Y-14221150D01*
X14723844Y-14154484D02*
X14723844Y-14325912D01*
X14723844Y-14325912D02*
X14733368Y-14344960D01*
X14733368Y-14344960D02*
X14752415Y-14354484D01*
X14752415Y-14354484D02*
X14771463Y-14354484D01*
X14828606Y-14344960D02*
X14847654Y-14354484D01*
X14847654Y-14354484D02*
X14885749Y-14354484D01*
X14885749Y-14354484D02*
X14904796Y-14344960D01*
X14904796Y-14344960D02*
X14914320Y-14325912D01*
X14914320Y-14325912D02*
X14914320Y-14316388D01*
X14914320Y-14316388D02*
X14904796Y-14297341D01*
X14904796Y-14297341D02*
X14885749Y-14287817D01*
X14885749Y-14287817D02*
X14857177Y-14287817D01*
X14857177Y-14287817D02*
X14838130Y-14278293D01*
X14838130Y-14278293D02*
X14828606Y-14259246D01*
X14828606Y-14259246D02*
X14828606Y-14249722D01*
X14828606Y-14249722D02*
X14838130Y-14230674D01*
X14838130Y-14230674D02*
X14857177Y-14221150D01*
X14857177Y-14221150D02*
X14885749Y-14221150D01*
X14885749Y-14221150D02*
X14904796Y-14230674D01*
X14980987Y-14430674D02*
X14990511Y-14421150D01*
X14990511Y-14421150D02*
X15009558Y-14392579D01*
X15009558Y-14392579D02*
X15019082Y-14373531D01*
X15019082Y-14373531D02*
X15028606Y-14344960D01*
X15028606Y-14344960D02*
X15038130Y-14297341D01*
X15038130Y-14297341D02*
X15038130Y-14259246D01*
X15038130Y-14259246D02*
X15028606Y-14211627D01*
X15028606Y-14211627D02*
X15019082Y-14183055D01*
X15019082Y-14183055D02*
X15009558Y-14164008D01*
X15009558Y-14164008D02*
X14990511Y-14135436D01*
X14990511Y-14135436D02*
X14980987Y-14125912D01*
D14*
X8381463Y-14563063D02*
X8381463Y-14490937D01*
X8309337Y-14490937D01*
X8309337Y-14563063D01*
X8381463Y-14563063D01*
D11*
X8761939Y-14618484D02*
X8647653Y-14618484D01*
X8704796Y-14618484D02*
X8704796Y-14418484D01*
X8704796Y-14418484D02*
X8685748Y-14447055D01*
X8685748Y-14447055D02*
X8666701Y-14466103D01*
X8666701Y-14466103D02*
X8647653Y-14475627D01*
X8847653Y-14599436D02*
X8857177Y-14608960D01*
X8857177Y-14608960D02*
X8847653Y-14618484D01*
X8847653Y-14618484D02*
X8838129Y-14608960D01*
X8838129Y-14608960D02*
X8847653Y-14599436D01*
X8847653Y-14599436D02*
X8847653Y-14618484D01*
X8980986Y-14418484D02*
X9000034Y-14418484D01*
X9000034Y-14418484D02*
X9019082Y-14428008D01*
X9019082Y-14428008D02*
X9028605Y-14437531D01*
X9028605Y-14437531D02*
X9038129Y-14456579D01*
X9038129Y-14456579D02*
X9047653Y-14494674D01*
X9047653Y-14494674D02*
X9047653Y-14542293D01*
X9047653Y-14542293D02*
X9038129Y-14580388D01*
X9038129Y-14580388D02*
X9028605Y-14599436D01*
X9028605Y-14599436D02*
X9019082Y-14608960D01*
X9019082Y-14608960D02*
X9000034Y-14618484D01*
X9000034Y-14618484D02*
X8980986Y-14618484D01*
X8980986Y-14618484D02*
X8961939Y-14608960D01*
X8961939Y-14608960D02*
X8952415Y-14599436D01*
X8952415Y-14599436D02*
X8942891Y-14580388D01*
X8942891Y-14580388D02*
X8933367Y-14542293D01*
X8933367Y-14542293D02*
X8933367Y-14494674D01*
X8933367Y-14494674D02*
X8942891Y-14456579D01*
X8942891Y-14456579D02*
X8952415Y-14437531D01*
X8952415Y-14437531D02*
X8961939Y-14428008D01*
X8961939Y-14428008D02*
X8980986Y-14418484D01*
X9123844Y-14437531D02*
X9133367Y-14428008D01*
X9133367Y-14428008D02*
X9152415Y-14418484D01*
X9152415Y-14418484D02*
X9200034Y-14418484D01*
X9200034Y-14418484D02*
X9219082Y-14428008D01*
X9219082Y-14428008D02*
X9228605Y-14437531D01*
X9228605Y-14437531D02*
X9238129Y-14456579D01*
X9238129Y-14456579D02*
X9238129Y-14475627D01*
X9238129Y-14475627D02*
X9228605Y-14504198D01*
X9228605Y-14504198D02*
X9114320Y-14618484D01*
X9114320Y-14618484D02*
X9238129Y-14618484D01*
X9361939Y-14418484D02*
X9380986Y-14418484D01*
X9380986Y-14418484D02*
X9400034Y-14428008D01*
X9400034Y-14428008D02*
X9409558Y-14437531D01*
X9409558Y-14437531D02*
X9419082Y-14456579D01*
X9419082Y-14456579D02*
X9428605Y-14494674D01*
X9428605Y-14494674D02*
X9428605Y-14542293D01*
X9428605Y-14542293D02*
X9419082Y-14580388D01*
X9419082Y-14580388D02*
X9409558Y-14599436D01*
X9409558Y-14599436D02*
X9400034Y-14608960D01*
X9400034Y-14608960D02*
X9380986Y-14618484D01*
X9380986Y-14618484D02*
X9361939Y-14618484D01*
X9361939Y-14618484D02*
X9342891Y-14608960D01*
X9342891Y-14608960D02*
X9333367Y-14599436D01*
X9333367Y-14599436D02*
X9323844Y-14580388D01*
X9323844Y-14580388D02*
X9314320Y-14542293D01*
X9314320Y-14542293D02*
X9314320Y-14494674D01*
X9314320Y-14494674D02*
X9323844Y-14456579D01*
X9323844Y-14456579D02*
X9333367Y-14437531D01*
X9333367Y-14437531D02*
X9342891Y-14428008D01*
X9342891Y-14428008D02*
X9361939Y-14418484D01*
X9514320Y-14618484D02*
X9514320Y-14485150D01*
X9514320Y-14504198D02*
X9523844Y-14494674D01*
X9523844Y-14494674D02*
X9542891Y-14485150D01*
X9542891Y-14485150D02*
X9571463Y-14485150D01*
X9571463Y-14485150D02*
X9590510Y-14494674D01*
X9590510Y-14494674D02*
X9600034Y-14513722D01*
X9600034Y-14513722D02*
X9600034Y-14618484D01*
X9600034Y-14513722D02*
X9609558Y-14494674D01*
X9609558Y-14494674D02*
X9628605Y-14485150D01*
X9628605Y-14485150D02*
X9657177Y-14485150D01*
X9657177Y-14485150D02*
X9676225Y-14494674D01*
X9676225Y-14494674D02*
X9685748Y-14513722D01*
X9685748Y-14513722D02*
X9685748Y-14618484D01*
X9780986Y-14618484D02*
X9780986Y-14485150D01*
X9780986Y-14504198D02*
X9790510Y-14494674D01*
X9790510Y-14494674D02*
X9809558Y-14485150D01*
X9809558Y-14485150D02*
X9838129Y-14485150D01*
X9838129Y-14485150D02*
X9857177Y-14494674D01*
X9857177Y-14494674D02*
X9866701Y-14513722D01*
X9866701Y-14513722D02*
X9866701Y-14618484D01*
X9866701Y-14513722D02*
X9876225Y-14494674D01*
X9876225Y-14494674D02*
X9895272Y-14485150D01*
X9895272Y-14485150D02*
X9923844Y-14485150D01*
X9923844Y-14485150D02*
X9942891Y-14494674D01*
X9942891Y-14494674D02*
X9952415Y-14513722D01*
X9952415Y-14513722D02*
X9952415Y-14618484D01*
X10342891Y-14408960D02*
X10171463Y-14666103D01*
X10600034Y-14418484D02*
X10619082Y-14418484D01*
X10619082Y-14418484D02*
X10638129Y-14428008D01*
X10638129Y-14428008D02*
X10647653Y-14437531D01*
X10647653Y-14437531D02*
X10657177Y-14456579D01*
X10657177Y-14456579D02*
X10666701Y-14494674D01*
X10666701Y-14494674D02*
X10666701Y-14542293D01*
X10666701Y-14542293D02*
X10657177Y-14580388D01*
X10657177Y-14580388D02*
X10647653Y-14599436D01*
X10647653Y-14599436D02*
X10638129Y-14608960D01*
X10638129Y-14608960D02*
X10619082Y-14618484D01*
X10619082Y-14618484D02*
X10600034Y-14618484D01*
X10600034Y-14618484D02*
X10580987Y-14608960D01*
X10580987Y-14608960D02*
X10571463Y-14599436D01*
X10571463Y-14599436D02*
X10561939Y-14580388D01*
X10561939Y-14580388D02*
X10552415Y-14542293D01*
X10552415Y-14542293D02*
X10552415Y-14494674D01*
X10552415Y-14494674D02*
X10561939Y-14456579D01*
X10561939Y-14456579D02*
X10571463Y-14437531D01*
X10571463Y-14437531D02*
X10580987Y-14428008D01*
X10580987Y-14428008D02*
X10600034Y-14418484D01*
X10752415Y-14599436D02*
X10761939Y-14608960D01*
X10761939Y-14608960D02*
X10752415Y-14618484D01*
X10752415Y-14618484D02*
X10742891Y-14608960D01*
X10742891Y-14608960D02*
X10752415Y-14599436D01*
X10752415Y-14599436D02*
X10752415Y-14618484D01*
X10885748Y-14418484D02*
X10904796Y-14418484D01*
X10904796Y-14418484D02*
X10923844Y-14428008D01*
X10923844Y-14428008D02*
X10933368Y-14437531D01*
X10933368Y-14437531D02*
X10942891Y-14456579D01*
X10942891Y-14456579D02*
X10952415Y-14494674D01*
X10952415Y-14494674D02*
X10952415Y-14542293D01*
X10952415Y-14542293D02*
X10942891Y-14580388D01*
X10942891Y-14580388D02*
X10933368Y-14599436D01*
X10933368Y-14599436D02*
X10923844Y-14608960D01*
X10923844Y-14608960D02*
X10904796Y-14618484D01*
X10904796Y-14618484D02*
X10885748Y-14618484D01*
X10885748Y-14618484D02*
X10866701Y-14608960D01*
X10866701Y-14608960D02*
X10857177Y-14599436D01*
X10857177Y-14599436D02*
X10847653Y-14580388D01*
X10847653Y-14580388D02*
X10838129Y-14542293D01*
X10838129Y-14542293D02*
X10838129Y-14494674D01*
X10838129Y-14494674D02*
X10847653Y-14456579D01*
X10847653Y-14456579D02*
X10857177Y-14437531D01*
X10857177Y-14437531D02*
X10866701Y-14428008D01*
X10866701Y-14428008D02*
X10885748Y-14418484D01*
X11123844Y-14485150D02*
X11123844Y-14618484D01*
X11076225Y-14408960D02*
X11028606Y-14551817D01*
X11028606Y-14551817D02*
X11152415Y-14551817D01*
X11266701Y-14418484D02*
X11285748Y-14418484D01*
X11285748Y-14418484D02*
X11304796Y-14428008D01*
X11304796Y-14428008D02*
X11314320Y-14437531D01*
X11314320Y-14437531D02*
X11323844Y-14456579D01*
X11323844Y-14456579D02*
X11333367Y-14494674D01*
X11333367Y-14494674D02*
X11333367Y-14542293D01*
X11333367Y-14542293D02*
X11323844Y-14580388D01*
X11323844Y-14580388D02*
X11314320Y-14599436D01*
X11314320Y-14599436D02*
X11304796Y-14608960D01*
X11304796Y-14608960D02*
X11285748Y-14618484D01*
X11285748Y-14618484D02*
X11266701Y-14618484D01*
X11266701Y-14618484D02*
X11247653Y-14608960D01*
X11247653Y-14608960D02*
X11238129Y-14599436D01*
X11238129Y-14599436D02*
X11228606Y-14580388D01*
X11228606Y-14580388D02*
X11219082Y-14542293D01*
X11219082Y-14542293D02*
X11219082Y-14494674D01*
X11219082Y-14494674D02*
X11228606Y-14456579D01*
X11228606Y-14456579D02*
X11238129Y-14437531D01*
X11238129Y-14437531D02*
X11247653Y-14428008D01*
X11247653Y-14428008D02*
X11266701Y-14418484D01*
X11409558Y-14437531D02*
X11419082Y-14428008D01*
X11419082Y-14428008D02*
X11438129Y-14418484D01*
X11438129Y-14418484D02*
X11485748Y-14418484D01*
X11485748Y-14418484D02*
X11504796Y-14428008D01*
X11504796Y-14428008D02*
X11514320Y-14437531D01*
X11514320Y-14437531D02*
X11523844Y-14456579D01*
X11523844Y-14456579D02*
X11523844Y-14475627D01*
X11523844Y-14475627D02*
X11514320Y-14504198D01*
X11514320Y-14504198D02*
X11400034Y-14618484D01*
X11400034Y-14618484D02*
X11523844Y-14618484D01*
X11600034Y-14418484D02*
X11600034Y-14456579D01*
X11676225Y-14418484D02*
X11676225Y-14456579D01*
X11971463Y-14694674D02*
X11961939Y-14685150D01*
X11961939Y-14685150D02*
X11942891Y-14656579D01*
X11942891Y-14656579D02*
X11933368Y-14637531D01*
X11933368Y-14637531D02*
X11923844Y-14608960D01*
X11923844Y-14608960D02*
X11914320Y-14561341D01*
X11914320Y-14561341D02*
X11914320Y-14523246D01*
X11914320Y-14523246D02*
X11923844Y-14475627D01*
X11923844Y-14475627D02*
X11933368Y-14447055D01*
X11933368Y-14447055D02*
X11942891Y-14428008D01*
X11942891Y-14428008D02*
X11961939Y-14399436D01*
X11961939Y-14399436D02*
X11971463Y-14389912D01*
X12028606Y-14418484D02*
X12152415Y-14418484D01*
X12152415Y-14418484D02*
X12085748Y-14494674D01*
X12085748Y-14494674D02*
X12114320Y-14494674D01*
X12114320Y-14494674D02*
X12133368Y-14504198D01*
X12133368Y-14504198D02*
X12142891Y-14513722D01*
X12142891Y-14513722D02*
X12152415Y-14532769D01*
X12152415Y-14532769D02*
X12152415Y-14580388D01*
X12152415Y-14580388D02*
X12142891Y-14599436D01*
X12142891Y-14599436D02*
X12133368Y-14608960D01*
X12133368Y-14608960D02*
X12114320Y-14618484D01*
X12114320Y-14618484D02*
X12057177Y-14618484D01*
X12057177Y-14618484D02*
X12038129Y-14608960D01*
X12038129Y-14608960D02*
X12028606Y-14599436D01*
X12276225Y-14418484D02*
X12295272Y-14418484D01*
X12295272Y-14418484D02*
X12314320Y-14428008D01*
X12314320Y-14428008D02*
X12323844Y-14437531D01*
X12323844Y-14437531D02*
X12333368Y-14456579D01*
X12333368Y-14456579D02*
X12342891Y-14494674D01*
X12342891Y-14494674D02*
X12342891Y-14542293D01*
X12342891Y-14542293D02*
X12333368Y-14580388D01*
X12333368Y-14580388D02*
X12323844Y-14599436D01*
X12323844Y-14599436D02*
X12314320Y-14608960D01*
X12314320Y-14608960D02*
X12295272Y-14618484D01*
X12295272Y-14618484D02*
X12276225Y-14618484D01*
X12276225Y-14618484D02*
X12257177Y-14608960D01*
X12257177Y-14608960D02*
X12247653Y-14599436D01*
X12247653Y-14599436D02*
X12238129Y-14580388D01*
X12238129Y-14580388D02*
X12228606Y-14542293D01*
X12228606Y-14542293D02*
X12228606Y-14494674D01*
X12228606Y-14494674D02*
X12238129Y-14456579D01*
X12238129Y-14456579D02*
X12247653Y-14437531D01*
X12247653Y-14437531D02*
X12257177Y-14428008D01*
X12257177Y-14428008D02*
X12276225Y-14418484D01*
X12580987Y-14618484D02*
X12580987Y-14418484D01*
X12666701Y-14618484D02*
X12666701Y-14513722D01*
X12666701Y-14513722D02*
X12657177Y-14494674D01*
X12657177Y-14494674D02*
X12638130Y-14485150D01*
X12638130Y-14485150D02*
X12609558Y-14485150D01*
X12609558Y-14485150D02*
X12590510Y-14494674D01*
X12590510Y-14494674D02*
X12580987Y-14504198D01*
X12790510Y-14618484D02*
X12771463Y-14608960D01*
X12771463Y-14608960D02*
X12761939Y-14599436D01*
X12761939Y-14599436D02*
X12752415Y-14580388D01*
X12752415Y-14580388D02*
X12752415Y-14523246D01*
X12752415Y-14523246D02*
X12761939Y-14504198D01*
X12761939Y-14504198D02*
X12771463Y-14494674D01*
X12771463Y-14494674D02*
X12790510Y-14485150D01*
X12790510Y-14485150D02*
X12819082Y-14485150D01*
X12819082Y-14485150D02*
X12838130Y-14494674D01*
X12838130Y-14494674D02*
X12847653Y-14504198D01*
X12847653Y-14504198D02*
X12857177Y-14523246D01*
X12857177Y-14523246D02*
X12857177Y-14580388D01*
X12857177Y-14580388D02*
X12847653Y-14599436D01*
X12847653Y-14599436D02*
X12838130Y-14608960D01*
X12838130Y-14608960D02*
X12819082Y-14618484D01*
X12819082Y-14618484D02*
X12790510Y-14618484D01*
X12971463Y-14618484D02*
X12952415Y-14608960D01*
X12952415Y-14608960D02*
X12942891Y-14589912D01*
X12942891Y-14589912D02*
X12942891Y-14418484D01*
X13123844Y-14608960D02*
X13104796Y-14618484D01*
X13104796Y-14618484D02*
X13066701Y-14618484D01*
X13066701Y-14618484D02*
X13047653Y-14608960D01*
X13047653Y-14608960D02*
X13038130Y-14589912D01*
X13038130Y-14589912D02*
X13038130Y-14513722D01*
X13038130Y-14513722D02*
X13047653Y-14494674D01*
X13047653Y-14494674D02*
X13066701Y-14485150D01*
X13066701Y-14485150D02*
X13104796Y-14485150D01*
X13104796Y-14485150D02*
X13123844Y-14494674D01*
X13123844Y-14494674D02*
X13133368Y-14513722D01*
X13133368Y-14513722D02*
X13133368Y-14532769D01*
X13133368Y-14532769D02*
X13038130Y-14551817D01*
X13209558Y-14608960D02*
X13228606Y-14618484D01*
X13228606Y-14618484D02*
X13266701Y-14618484D01*
X13266701Y-14618484D02*
X13285749Y-14608960D01*
X13285749Y-14608960D02*
X13295272Y-14589912D01*
X13295272Y-14589912D02*
X13295272Y-14580388D01*
X13295272Y-14580388D02*
X13285749Y-14561341D01*
X13285749Y-14561341D02*
X13266701Y-14551817D01*
X13266701Y-14551817D02*
X13238130Y-14551817D01*
X13238130Y-14551817D02*
X13219082Y-14542293D01*
X13219082Y-14542293D02*
X13209558Y-14523246D01*
X13209558Y-14523246D02*
X13209558Y-14513722D01*
X13209558Y-14513722D02*
X13219082Y-14494674D01*
X13219082Y-14494674D02*
X13238130Y-14485150D01*
X13238130Y-14485150D02*
X13266701Y-14485150D01*
X13266701Y-14485150D02*
X13285749Y-14494674D01*
X13361939Y-14694674D02*
X13371463Y-14685150D01*
X13371463Y-14685150D02*
X13390511Y-14656579D01*
X13390511Y-14656579D02*
X13400034Y-14637531D01*
X13400034Y-14637531D02*
X13409558Y-14608960D01*
X13409558Y-14608960D02*
X13419082Y-14561341D01*
X13419082Y-14561341D02*
X13419082Y-14523246D01*
X13419082Y-14523246D02*
X13409558Y-14475627D01*
X13409558Y-14475627D02*
X13400034Y-14447055D01*
X13400034Y-14447055D02*
X13390511Y-14428008D01*
X13390511Y-14428008D02*
X13371463Y-14399436D01*
X13371463Y-14399436D02*
X13361939Y-14389912D01*
D15*
X8336400Y-14851000D02*
X8396400Y-14791000D01*
X8336400Y-14731000D01*
X8276400Y-14791000D01*
X8336400Y-14851000D01*
D11*
X8761939Y-14882484D02*
X8647653Y-14882484D01*
X8704796Y-14882484D02*
X8704796Y-14682484D01*
X8704796Y-14682484D02*
X8685748Y-14711055D01*
X8685748Y-14711055D02*
X8666701Y-14730103D01*
X8666701Y-14730103D02*
X8647653Y-14739627D01*
X8847653Y-14863436D02*
X8857177Y-14872960D01*
X8857177Y-14872960D02*
X8847653Y-14882484D01*
X8847653Y-14882484D02*
X8838129Y-14872960D01*
X8838129Y-14872960D02*
X8847653Y-14863436D01*
X8847653Y-14863436D02*
X8847653Y-14882484D01*
X8933367Y-14701531D02*
X8942891Y-14692008D01*
X8942891Y-14692008D02*
X8961939Y-14682484D01*
X8961939Y-14682484D02*
X9009558Y-14682484D01*
X9009558Y-14682484D02*
X9028605Y-14692008D01*
X9028605Y-14692008D02*
X9038129Y-14701531D01*
X9038129Y-14701531D02*
X9047653Y-14720579D01*
X9047653Y-14720579D02*
X9047653Y-14739627D01*
X9047653Y-14739627D02*
X9038129Y-14768198D01*
X9038129Y-14768198D02*
X8923844Y-14882484D01*
X8923844Y-14882484D02*
X9047653Y-14882484D01*
X9171463Y-14682484D02*
X9190510Y-14682484D01*
X9190510Y-14682484D02*
X9209558Y-14692008D01*
X9209558Y-14692008D02*
X9219082Y-14701531D01*
X9219082Y-14701531D02*
X9228605Y-14720579D01*
X9228605Y-14720579D02*
X9238129Y-14758674D01*
X9238129Y-14758674D02*
X9238129Y-14806293D01*
X9238129Y-14806293D02*
X9228605Y-14844388D01*
X9228605Y-14844388D02*
X9219082Y-14863436D01*
X9219082Y-14863436D02*
X9209558Y-14872960D01*
X9209558Y-14872960D02*
X9190510Y-14882484D01*
X9190510Y-14882484D02*
X9171463Y-14882484D01*
X9171463Y-14882484D02*
X9152415Y-14872960D01*
X9152415Y-14872960D02*
X9142891Y-14863436D01*
X9142891Y-14863436D02*
X9133367Y-14844388D01*
X9133367Y-14844388D02*
X9123844Y-14806293D01*
X9123844Y-14806293D02*
X9123844Y-14758674D01*
X9123844Y-14758674D02*
X9133367Y-14720579D01*
X9133367Y-14720579D02*
X9142891Y-14701531D01*
X9142891Y-14701531D02*
X9152415Y-14692008D01*
X9152415Y-14692008D02*
X9171463Y-14682484D01*
X9361939Y-14682484D02*
X9380986Y-14682484D01*
X9380986Y-14682484D02*
X9400034Y-14692008D01*
X9400034Y-14692008D02*
X9409558Y-14701531D01*
X9409558Y-14701531D02*
X9419082Y-14720579D01*
X9419082Y-14720579D02*
X9428605Y-14758674D01*
X9428605Y-14758674D02*
X9428605Y-14806293D01*
X9428605Y-14806293D02*
X9419082Y-14844388D01*
X9419082Y-14844388D02*
X9409558Y-14863436D01*
X9409558Y-14863436D02*
X9400034Y-14872960D01*
X9400034Y-14872960D02*
X9380986Y-14882484D01*
X9380986Y-14882484D02*
X9361939Y-14882484D01*
X9361939Y-14882484D02*
X9342891Y-14872960D01*
X9342891Y-14872960D02*
X9333367Y-14863436D01*
X9333367Y-14863436D02*
X9323844Y-14844388D01*
X9323844Y-14844388D02*
X9314320Y-14806293D01*
X9314320Y-14806293D02*
X9314320Y-14758674D01*
X9314320Y-14758674D02*
X9323844Y-14720579D01*
X9323844Y-14720579D02*
X9333367Y-14701531D01*
X9333367Y-14701531D02*
X9342891Y-14692008D01*
X9342891Y-14692008D02*
X9361939Y-14682484D01*
X9514320Y-14882484D02*
X9514320Y-14749150D01*
X9514320Y-14768198D02*
X9523844Y-14758674D01*
X9523844Y-14758674D02*
X9542891Y-14749150D01*
X9542891Y-14749150D02*
X9571463Y-14749150D01*
X9571463Y-14749150D02*
X9590510Y-14758674D01*
X9590510Y-14758674D02*
X9600034Y-14777722D01*
X9600034Y-14777722D02*
X9600034Y-14882484D01*
X9600034Y-14777722D02*
X9609558Y-14758674D01*
X9609558Y-14758674D02*
X9628605Y-14749150D01*
X9628605Y-14749150D02*
X9657177Y-14749150D01*
X9657177Y-14749150D02*
X9676225Y-14758674D01*
X9676225Y-14758674D02*
X9685748Y-14777722D01*
X9685748Y-14777722D02*
X9685748Y-14882484D01*
X9780986Y-14882484D02*
X9780986Y-14749150D01*
X9780986Y-14768198D02*
X9790510Y-14758674D01*
X9790510Y-14758674D02*
X9809558Y-14749150D01*
X9809558Y-14749150D02*
X9838129Y-14749150D01*
X9838129Y-14749150D02*
X9857177Y-14758674D01*
X9857177Y-14758674D02*
X9866701Y-14777722D01*
X9866701Y-14777722D02*
X9866701Y-14882484D01*
X9866701Y-14777722D02*
X9876225Y-14758674D01*
X9876225Y-14758674D02*
X9895272Y-14749150D01*
X9895272Y-14749150D02*
X9923844Y-14749150D01*
X9923844Y-14749150D02*
X9942891Y-14758674D01*
X9942891Y-14758674D02*
X9952415Y-14777722D01*
X9952415Y-14777722D02*
X9952415Y-14882484D01*
X10342891Y-14672960D02*
X10171463Y-14930103D01*
X10600034Y-14682484D02*
X10619082Y-14682484D01*
X10619082Y-14682484D02*
X10638129Y-14692008D01*
X10638129Y-14692008D02*
X10647653Y-14701531D01*
X10647653Y-14701531D02*
X10657177Y-14720579D01*
X10657177Y-14720579D02*
X10666701Y-14758674D01*
X10666701Y-14758674D02*
X10666701Y-14806293D01*
X10666701Y-14806293D02*
X10657177Y-14844388D01*
X10657177Y-14844388D02*
X10647653Y-14863436D01*
X10647653Y-14863436D02*
X10638129Y-14872960D01*
X10638129Y-14872960D02*
X10619082Y-14882484D01*
X10619082Y-14882484D02*
X10600034Y-14882484D01*
X10600034Y-14882484D02*
X10580987Y-14872960D01*
X10580987Y-14872960D02*
X10571463Y-14863436D01*
X10571463Y-14863436D02*
X10561939Y-14844388D01*
X10561939Y-14844388D02*
X10552415Y-14806293D01*
X10552415Y-14806293D02*
X10552415Y-14758674D01*
X10552415Y-14758674D02*
X10561939Y-14720579D01*
X10561939Y-14720579D02*
X10571463Y-14701531D01*
X10571463Y-14701531D02*
X10580987Y-14692008D01*
X10580987Y-14692008D02*
X10600034Y-14682484D01*
X10752415Y-14863436D02*
X10761939Y-14872960D01*
X10761939Y-14872960D02*
X10752415Y-14882484D01*
X10752415Y-14882484D02*
X10742891Y-14872960D01*
X10742891Y-14872960D02*
X10752415Y-14863436D01*
X10752415Y-14863436D02*
X10752415Y-14882484D01*
X10885748Y-14682484D02*
X10904796Y-14682484D01*
X10904796Y-14682484D02*
X10923844Y-14692008D01*
X10923844Y-14692008D02*
X10933368Y-14701531D01*
X10933368Y-14701531D02*
X10942891Y-14720579D01*
X10942891Y-14720579D02*
X10952415Y-14758674D01*
X10952415Y-14758674D02*
X10952415Y-14806293D01*
X10952415Y-14806293D02*
X10942891Y-14844388D01*
X10942891Y-14844388D02*
X10933368Y-14863436D01*
X10933368Y-14863436D02*
X10923844Y-14872960D01*
X10923844Y-14872960D02*
X10904796Y-14882484D01*
X10904796Y-14882484D02*
X10885748Y-14882484D01*
X10885748Y-14882484D02*
X10866701Y-14872960D01*
X10866701Y-14872960D02*
X10857177Y-14863436D01*
X10857177Y-14863436D02*
X10847653Y-14844388D01*
X10847653Y-14844388D02*
X10838129Y-14806293D01*
X10838129Y-14806293D02*
X10838129Y-14758674D01*
X10838129Y-14758674D02*
X10847653Y-14720579D01*
X10847653Y-14720579D02*
X10857177Y-14701531D01*
X10857177Y-14701531D02*
X10866701Y-14692008D01*
X10866701Y-14692008D02*
X10885748Y-14682484D01*
X11123844Y-14749150D02*
X11123844Y-14882484D01*
X11076225Y-14672960D02*
X11028606Y-14815817D01*
X11028606Y-14815817D02*
X11152415Y-14815817D01*
X11209558Y-14682484D02*
X11342891Y-14682484D01*
X11342891Y-14682484D02*
X11257177Y-14882484D01*
X11409558Y-14701531D02*
X11419082Y-14692008D01*
X11419082Y-14692008D02*
X11438129Y-14682484D01*
X11438129Y-14682484D02*
X11485748Y-14682484D01*
X11485748Y-14682484D02*
X11504796Y-14692008D01*
X11504796Y-14692008D02*
X11514320Y-14701531D01*
X11514320Y-14701531D02*
X11523844Y-14720579D01*
X11523844Y-14720579D02*
X11523844Y-14739627D01*
X11523844Y-14739627D02*
X11514320Y-14768198D01*
X11514320Y-14768198D02*
X11400034Y-14882484D01*
X11400034Y-14882484D02*
X11523844Y-14882484D01*
X11600034Y-14682484D02*
X11600034Y-14720579D01*
X11676225Y-14682484D02*
X11676225Y-14720579D01*
X11971463Y-14958674D02*
X11961939Y-14949150D01*
X11961939Y-14949150D02*
X11942891Y-14920579D01*
X11942891Y-14920579D02*
X11933368Y-14901531D01*
X11933368Y-14901531D02*
X11923844Y-14872960D01*
X11923844Y-14872960D02*
X11914320Y-14825341D01*
X11914320Y-14825341D02*
X11914320Y-14787246D01*
X11914320Y-14787246D02*
X11923844Y-14739627D01*
X11923844Y-14739627D02*
X11933368Y-14711055D01*
X11933368Y-14711055D02*
X11942891Y-14692008D01*
X11942891Y-14692008D02*
X11961939Y-14663436D01*
X11961939Y-14663436D02*
X11971463Y-14653912D01*
X12133368Y-14749150D02*
X12133368Y-14882484D01*
X12085748Y-14672960D02*
X12038129Y-14815817D01*
X12038129Y-14815817D02*
X12161939Y-14815817D01*
X12390510Y-14882484D02*
X12390510Y-14682484D01*
X12476225Y-14882484D02*
X12476225Y-14777722D01*
X12476225Y-14777722D02*
X12466701Y-14758674D01*
X12466701Y-14758674D02*
X12447653Y-14749150D01*
X12447653Y-14749150D02*
X12419082Y-14749150D01*
X12419082Y-14749150D02*
X12400034Y-14758674D01*
X12400034Y-14758674D02*
X12390510Y-14768198D01*
X12600034Y-14882484D02*
X12580987Y-14872960D01*
X12580987Y-14872960D02*
X12571463Y-14863436D01*
X12571463Y-14863436D02*
X12561939Y-14844388D01*
X12561939Y-14844388D02*
X12561939Y-14787246D01*
X12561939Y-14787246D02*
X12571463Y-14768198D01*
X12571463Y-14768198D02*
X12580987Y-14758674D01*
X12580987Y-14758674D02*
X12600034Y-14749150D01*
X12600034Y-14749150D02*
X12628606Y-14749150D01*
X12628606Y-14749150D02*
X12647653Y-14758674D01*
X12647653Y-14758674D02*
X12657177Y-14768198D01*
X12657177Y-14768198D02*
X12666701Y-14787246D01*
X12666701Y-14787246D02*
X12666701Y-14844388D01*
X12666701Y-14844388D02*
X12657177Y-14863436D01*
X12657177Y-14863436D02*
X12647653Y-14872960D01*
X12647653Y-14872960D02*
X12628606Y-14882484D01*
X12628606Y-14882484D02*
X12600034Y-14882484D01*
X12780987Y-14882484D02*
X12761939Y-14872960D01*
X12761939Y-14872960D02*
X12752415Y-14853912D01*
X12752415Y-14853912D02*
X12752415Y-14682484D01*
X12933368Y-14872960D02*
X12914320Y-14882484D01*
X12914320Y-14882484D02*
X12876225Y-14882484D01*
X12876225Y-14882484D02*
X12857177Y-14872960D01*
X12857177Y-14872960D02*
X12847653Y-14853912D01*
X12847653Y-14853912D02*
X12847653Y-14777722D01*
X12847653Y-14777722D02*
X12857177Y-14758674D01*
X12857177Y-14758674D02*
X12876225Y-14749150D01*
X12876225Y-14749150D02*
X12914320Y-14749150D01*
X12914320Y-14749150D02*
X12933368Y-14758674D01*
X12933368Y-14758674D02*
X12942891Y-14777722D01*
X12942891Y-14777722D02*
X12942891Y-14796769D01*
X12942891Y-14796769D02*
X12847653Y-14815817D01*
X13019082Y-14872960D02*
X13038130Y-14882484D01*
X13038130Y-14882484D02*
X13076225Y-14882484D01*
X13076225Y-14882484D02*
X13095272Y-14872960D01*
X13095272Y-14872960D02*
X13104796Y-14853912D01*
X13104796Y-14853912D02*
X13104796Y-14844388D01*
X13104796Y-14844388D02*
X13095272Y-14825341D01*
X13095272Y-14825341D02*
X13076225Y-14815817D01*
X13076225Y-14815817D02*
X13047653Y-14815817D01*
X13047653Y-14815817D02*
X13028606Y-14806293D01*
X13028606Y-14806293D02*
X13019082Y-14787246D01*
X13019082Y-14787246D02*
X13019082Y-14777722D01*
X13019082Y-14777722D02*
X13028606Y-14758674D01*
X13028606Y-14758674D02*
X13047653Y-14749150D01*
X13047653Y-14749150D02*
X13076225Y-14749150D01*
X13076225Y-14749150D02*
X13095272Y-14758674D01*
X13171463Y-14958674D02*
X13180987Y-14949150D01*
X13180987Y-14949150D02*
X13200034Y-14920579D01*
X13200034Y-14920579D02*
X13209558Y-14901531D01*
X13209558Y-14901531D02*
X13219082Y-14872960D01*
X13219082Y-14872960D02*
X13228606Y-14825341D01*
X13228606Y-14825341D02*
X13228606Y-14787246D01*
X13228606Y-14787246D02*
X13219082Y-14739627D01*
X13219082Y-14739627D02*
X13209558Y-14711055D01*
X13209558Y-14711055D02*
X13200034Y-14692008D01*
X13200034Y-14692008D02*
X13180987Y-14663436D01*
X13180987Y-14663436D02*
X13171463Y-14653912D01*
M02*
