M48
; DRILL file {KiCad 7.0.5} date Mon Jan 22 17:02:44 2024
; FORMAT={2:4/ absolute / inch / suppress leading zeros}
; #@! TF.CreationDate,2024-01-22T17:02:44+01:00
; #@! TF.GenerationSoftware,Kicad,Pcbnew,7.0.5
; #@! TF.FileFunction,Plated,1,2,PTH
FMAT,2
INCH,TZ
; #@! TA.AperFunction,Plated,PTH,ViaDrill
T1C0.0157
; #@! TA.AperFunction,Plated,PTH,ViaDrill
T2C0.0315
; #@! TA.AperFunction,Plated,PTH,ComponentDrill
T3C0.0374
; #@! TA.AperFunction,Plated,PTH,ComponentDrill
T4C0.0394
; #@! TA.AperFunction,Plated,PTH,ComponentDrill
T5C0.0402
; #@! TA.AperFunction,Plated,PTH,ComponentDrill
T6C0.0472
%
G90
G05
T1
X11Y24993
X11Y-7
X53121Y24993
X53161Y-7
T2
X16884Y17913
X48223Y14173
T3
X49994Y16457
X49994Y15472
X49994Y14488
X49994Y13504
X49994Y12520
X49994Y11535
X49994Y10551
X49994Y9567
T4
X4126Y18971
X4126Y17969
X4126Y16969
X4126Y15969
X4126Y14969
X4126Y13969
X4126Y12969
X4126Y11969
X4126Y10969
X4126Y9969
X4126Y8969
X4126Y7969
X4126Y6969
X4126Y5969
X45055Y14048
X45055Y13048
X45055Y12048
X45063Y11056
T5
X9197Y20631
X9197Y19631
X9197Y18631
X9197Y17631
X9197Y16631
X9197Y15631
X9197Y14631
X9197Y13631
X9197Y12631
X9197Y11631
X9197Y10631
X9197Y9631
X9197Y8631
X9197Y7631
X9197Y6631
X19197Y20631
X19197Y19631
X19197Y18631
X19197Y17631
X19197Y16631
X19197Y15631
X19197Y14631
X19197Y13631
X19197Y12631
X19197Y11631
X19197Y10631
X19197Y9631
X19197Y8631
X19197Y7631
X19197Y6631
T6
X28155Y20920
X28155Y5370
X34905Y20920
X34905Y5370
T4
G00X21362Y4528
M15
G01X21362Y5316
M16
G05
G00X22819Y6103
M15
G01X23606Y6103
M16
G05
G00X22819Y3741
M15
G01X23606Y3741
M16
G05
T0
M30
