M48
; DRILL file {KiCad 7.0.5} date Mon Jan 22 18:41:35 2024
; FORMAT={2:4/ absolute / inch / suppress leading zeros}
; #@! TF.CreationDate,2024-01-22T18:41:35+01:00
; #@! TF.GenerationSoftware,Kicad,Pcbnew,7.0.5
; #@! TF.FileFunction,Plated,1,2,PTH
FMAT,2
INCH,TZ
; #@! TA.AperFunction,Plated,PTH,ViaDrill
T1C0.0157
; #@! TA.AperFunction,Plated,PTH,ComponentDrill
T2C0.0315
; #@! TA.AperFunction,Plated,PTH,ComponentDrill
T3C0.0374
; #@! TA.AperFunction,Plated,PTH,ComponentDrill
T4C0.0394
%
G90
G05
T1
X0Y16102
X0Y0
X15748Y16102
X15748Y0
T2
X3543Y1220
X8543Y1220
T3
X4016Y11299
X4016Y10315
X4016Y9331
X4016Y8346
X4016Y7362
X4016Y6378
X4016Y5394
X4016Y4409
X11772Y12717
X11772Y11732
X11772Y10748
X11772Y9764
X11772Y8780
X11772Y6299
X11772Y5315
X11772Y4331
T4
X11811Y2181
X11811Y1181
T0
M30
